<?xml version="1.0" standalone="no"?>
<!DOCTYPE svg PUBLIC "-//W3C//DTD SVG 1.1//EN" "http://www.w3.org/Graphics/SVG/1.1/DTD/svg11.dtd" >
<!--
2013-9-30: Created.
-->
<svg>
<metadata>
Created by iconfont
</metadata>
<defs>

<font id="iconfont" horiz-adv-x="1024" >
  <font-face
    font-family="iconfont"
    font-weight="500"
    font-stretch="normal"
    units-per-em="1024"
    ascent="896"
    descent="-128"
  />
    <missing-glyph />
    
    <glyph glyph-name="x" unicode="x" horiz-adv-x="1001"
d="M281 543q-27 -1 -53 -1h-83q-18 0 -36.5 -6t-32.5 -18.5t-23 -32t-9 -45.5v-76h912v41q0 16 -0.5 30t-0.5 18q0 13 -5 29t-17 29.5t-31.5 22.5t-49.5 9h-133v-97h-438v97zM955 310v-52q0 -23 0.5 -52t0.5 -58t-10.5 -47.5t-26 -30t-33 -16t-31.5 -4.5q-14 -1 -29.5 -0.5
t-29.5 0.5h-32l-45 128h-439l-44 -128h-29h-34q-20 0 -45 1q-25 0 -41 9.5t-25.5 23t-13.5 29.5t-4 30v167h911zM163 247q-12 0 -21 -8.5t-9 -21.5t9 -21.5t21 -8.5q13 0 22 8.5t9 21.5t-9 21.5t-22 8.5zM316 123q-8 -26 -14 -48q-5 -19 -10.5 -37t-7.5 -25t-3 -15t1 -14.5
t9.5 -10.5t21.5 -4h37h67h81h80h64h36q23 0 34 12t2 38q-5 13 -9.5 30.5t-9.5 34.5q-5 19 -11 39h-368zM336 498v228q0 11 2.5 23t10 21.5t20.5 15.5t34 6h188q31 0 51.5 -14.5t20.5 -52.5v-227h-327z" />
    

    
    <glyph glyph-name="II-ITshujujieru" unicode="&#58891;" d="M291.785868 895.917453a253.583282 253.583282 0 1 1 266.39452-253.253095A259.988901 259.988901 0 0 1 291.785868 895.917453z m0-461.270631a208.281685 208.281685 0 1 0 218.847655 208.017536 213.597689 213.597689 0 0 0-218.847655-208.017536z m763.259263-55.80153a253.583282 253.583282 0 1 1 266.361502-253.253095 259.988901 259.988901 0 0 1-266.361502 253.253095z m165.390451 11.55653V894.926894l265.43698-252.262536z m13.207462 277.686901H681.141865a26.05172 26.05172 0 0 1-26.844168-25.424365v-653.769399H26.414925a25.457384 25.457384 0 1 1 0-50.848731h654.792977a26.05172 26.05172 0 0 1 26.81115 25.424366V617.239992h525.789086a25.457384 25.457384 0 1 1-0.066038 50.848731z"  horiz-adv-x="1486" />

    
    <glyph glyph-name="II-shenduguanlian" unicode="&#58892;" d="M764.641923 203.473752c-1.296774 0-2.525298-0.227504-3.799322-0.227504a260.560665 260.560665 0 0 1-386.438789-10.237693 250.846232 250.846232 0 0 1-108.223791 2.047539 237.173224 237.173224 0 0 1-193.879157-227.731796h22.955183a225.729758 225.729758 0 0 0 183.391209 186.09851 243.247588 243.247588 0 0 0 103.446201-1.820034 252.757268 252.757268 0 0 0 369.375967 9.55518c1.228523 0 2.411545 0.227504 3.640069 0.227504a245.249626 245.249626 0 0 0 248.480187-241.837061 234.147417 234.147417 0 0 0-5.118847-47.548397h15.106285a253.826538 253.826538 0 0 1 11.056709 73.028877A259.127388 259.127388 0 0 1 764.641923 203.473752z m-324.170865-125.354864a58.241099 58.241099 0 1 1 58.605106-58.241099 58.468603 58.468603 0 0 1-58.605106 58.241099z m217.88086 41.633285a20.816643 20.816643 0 1 1 21.044147-20.930395 20.953145 20.953145 0 0 1-21.044147 20.930395z m44.340586-125.354864a23.091686 23.091686 0 1 1 23.29644-23.205438 23.137186 23.137186 0 0 1-23.29644 23.205438zM187.418035 670.085054l203.411587-202.023811-120.577274-119.894761a28.233283 28.233283 0 0 1 0-40.040756l97.57659-96.916828a302.762711 302.762711 0 0 0 43.840077 36.400687l-81.10528 80.536519 100.534146 99.874384 93.640767-93.049255a28.756542 28.756542 0 0 1 40.200008 0 28.233283 28.233283 0 0 1 0 40.040755l-93.618016 93.049255 100.511396 99.874384 123.876087-123.079822a168.353176 168.353176 0 0 0 33.852638-191.558613 298.417379 298.417379 0 0 0 45.842115-35.263165 224.546735 224.546735 0 0 1-39.471995 266.635029l-143.987466 143.1002a28.779293 28.779293 0 0 1-40.222758 0l-120.577275-119.894762-203.411586 202.251315A140.597652 140.597652 0 0 1 209.667955 887.80666a28.779293 28.779293 0 0 1-40.222759 0L8.622413 728.098648a28.233283 28.233283 0 0 1 0-40.040755 142.758943 142.758943 0 0 1 178.795622-17.972839zM72.505618 711.718339l113.228885 112.38712a84.426842 84.426842 0 0 0-76.714447-120.804779 85.223108 85.223108 0 0 0-36.514438 8.417659z"  horiz-adv-x="1025" />

    
    <glyph glyph-name="II-yewufuwu" unicode="&#58893;" d="M823.564894 285.965601a206.986781 206.986781 0 1 1 204.55298-206.986781A205.849491 205.849491 0 0 1 823.564894 285.965601z m-307.068302 196.068798a206.986781 206.986781 0 1 1-204.552981 206.986781 205.713016 205.713016 0 0 1 204.552981-206.986781z m0 376.897908a170.047602 170.047602 0 1 0-168.023226-169.911127A169.069532 169.069532 0 0 0 516.496592 858.932307zM209.42829 285.965601a206.986781 206.986781 0 1 1 204.552981-206.986781A205.849491 205.849491 0 0 1 209.42829 285.965601z m0-376.897908a169.911127 169.911127 0 1 0 168.023226 169.911127A168.910312 168.910312 0 0 0 209.42829-90.932307z m595.780743 479.026551v-63.005866h31.366458v94.849986h-304.338805v42.07973h-31.366459v-42.07973H197.236541v-94.849986h31.366459v63.005866h272.267227v-20.698678h31.366459v20.698678h272.949601z"  horiz-adv-x="1028" />

    
    <glyph glyph-name="II-zhinengduowei" unicode="&#58894;" d="M437.838017 543.292651a103.900758 103.900758 0 1 1 103.741471 109.453055 106.813438 106.813438 0 0 1-103.741471-109.453055zM541.647754 896C345.701755 896 184.389342 711.22686 184.389342 482.535966v-7.2817L126.750135 343.956111a28.444141 28.444141 0 0 1 0-19.569569 36.408501 36.408501 0 0 1 11.536943-14.563401l92.204528-46.193285v-172.712824a22.436738 22.436738 0 0 1 23.051132-24.348185H368.707376v-170.20974A22.436738 22.436738 0 0 1 391.758508-127.989077H714.588131a22.436738 22.436738 0 0 1 23.051132 24.348184V134.834786A433.329422 433.329422 0 0 1 898.906165 480.032881C898.906165 711.22686 737.525487 896 541.647754 896z m11.514188-48.696369c152.164777-7.2817 276.659093-141.08294 297.389183-316.071296h-89.906241v12.060316a236.4277 236.4277 0 0 1-41.482935 136.304324 162.177115 162.177115 0 0 1-32.289789 36.4085 209.348878 209.348878 0 0 1-133.710218 55.97807V847.303631z m101.443185-167.706656a310.314201 310.314201 0 0 0 25.349418-29.1268A182.725162 182.725162 0 0 0 541.647754 361.022595a170.323517 170.323517 0 0 0-119.874988 50.971901l41.482935 43.917754a118.21385 118.21385 0 1 1 78.392053 209.121325 130.752028 130.752028 0 0 1-59.937494-17.066485l-41.505691 43.690201a159.787807 159.787807 0 0 0 101.443185 34.132969 164.38438 164.38438 0 0 0 112.957373-46.193285z m-41.482936-194.557925l-32.289789 33.905416a43.075807 43.075807 0 0 1 6.826594 24.348185 46.17053 46.17053 0 1 1-46.102264-48.468816 36.636054 36.636054 0 0 1 23.051132 7.2817l32.267034-34.132969a93.729134 93.729134 0 0 0-55.318166-21.845101 97.415494 97.415494 0 1 0 92.204528 97.165186 85.309668 85.309668 0 0 0-20.73009-58.253601zM541.647754 518.944466a24.393695 24.393695 0 1 0 23.051132 24.348185 22.436738 22.436738 0 0 0-23.051132-24.348185z m-115.278415 24.348185a140.514057 140.514057 0 0 1 20.752845-70.54147l-41.482935-43.6902a191.986574 191.986574 0 0 0-36.886362 114.23167 179.33462 179.33462 0 0 0 55.318165 131.525708l41.505691-43.917753a107.109258 107.109258 0 0 1-39.27567-87.607955z m283.553953-367.270749l-9.215902-7.2817a22.254696 22.254696 0 0 1-9.102125-19.342016v-226.18781H414.786885v170.20974a22.436738 22.436738 0 0 1-23.051132 24.348185H276.457338v162.92804a23.210419 23.210419 0 0 1-13.83523 21.8451L177.335195 343.956111l50.721593 114.23167a15.450857 15.450857 0 0 1 2.275531 9.784785v12.060315c0 197.061009 133.710218 357.713518 299.68747 364.995218v-73.044554A226.824958 226.824958 0 0 1 322.559602 541.01712c0-126.519539 99.122143-231.193978 218.99713-231.193979a226.278831 226.278831 0 0 1 216.698845 194.557925h94.525569v-24.348185a380.992203 380.992203 0 0 0-142.948875-304.010979z"  horiz-adv-x="1024" />

    
    <glyph glyph-name="II-KPIzishiying" unicode="&#58895;" d="M1477.329489 893.359717a72.504399 72.504399 0 0 0 50.954164-46.666882l178.889713-557.726145a70.114144 70.114144 0 0 0-46.818644-89.539708 74.401427 74.401427 0 0 0-93.068179 45.528665L1440.754795 649.781359l-183.632282-314.906599a73.756437 73.756437 0 0 0-50.347115-34.525904l-406.533038-74.363486a73.94614 73.94614 0 0 0-84.493614 49.702126l-102.894782 329.703415L135.485912-96.129935a75.463762 75.463762 0 0 0-102.098031-20.108493 69.924441 69.924441 0 0 0-21.360532 98.64544L576.127507 811.028714a74.173783 74.173783 0 0 0 72.087053 31.111255 72.58028 72.58028 0 0 0 59.946076-50.081532l129.41523-414.310851 307.622012 56.15202L1393.86027 859.972029a74.932594 74.932594 0 0 0 71.366182 35.664121 111.241705 111.241705 0 0 0 12.103037-2.276433z"  horiz-adv-x="1712" />

    
    <glyph glyph-name="II-zhinenggaojing" unicode="&#58896;" d="M237.125304 350.784103V31.595018a31.490467 31.490467 0 0 1 33.466059-33.085222h535.552156a31.490467 31.490467 0 0 1 33.466059 33.085222V363.875378A305.621764 305.621764 0 0 1 511.589833 663.070516c-160.665647-6.664649-274.464529-152.810882-274.464529-312.286413z m348.108901 245.877945c113.798882-19.993947 187.443254-126.390309 187.443255-239.213296V64.918264H304.057423V370.540027a233.738763 233.738763 0 0 0 281.176782 226.122021z m314.61904-658.134093H176.857835a33.323245 33.323245 0 1 1 0-66.408467h722.99541a33.323245 33.323245 0 1 1 0 66.408467zM538.367441 696.393761a31.371455 31.371455 0 0 1 33.466059 33.085222V862.533941a33.466059 33.466059 0 0 1-66.932118 0v-139.719607A30.419362 30.419362 0 0 1 538.367441 696.393761z m254.375373-106.396362a40.463941 40.463941 0 0 1 26.777608 6.664649l100.42198 99.731713a31.823699 31.823699 0 0 1 0 46.41452 32.466362 32.466362 0 0 1-46.866765 0l-100.398177-93.067063a31.823699 31.823699 0 0 1 0-46.41452 35.441652 35.441652 0 0 1 20.065354-13.329299z m247.710724-179.469478h-140.600293a33.323245 33.323245 0 1 1 0-66.408467h140.600293a33.323245 33.323245 0 1 1 0 66.408467z m-783.26288 192.798777a32.442559 32.442559 0 0 1 26.777608-6.66465 40.463941 40.463941 0 0 1 26.777608 6.66465 31.823699 31.823699 0 0 1 0 46.41452L210.347696 742.808281a32.466362 32.466362 0 0 1-46.866764 0 31.823699 31.823699 0 0 1 0-46.41452z m-46.842962-226.122022a31.561874 31.561874 0 0 1-33.489861 33.323245H36.281345a33.323245 33.323245 0 1 1 0-66.408467h140.57649a35.703477 35.703477 0 0 1 33.489861 33.085222z"  horiz-adv-x="1077" />

    
    <glyph glyph-name="II-shujumoxing" unicode="&#58897;" d="M966.40602 128.25944a15.643697 15.643697 0 0 0-8.390296-15.007035L520.128646-125.95063h-2.137365a10.891469 10.891469 0 0 0-12.710504 0h-2.023676L65.347285 113.252405a15.598221 15.598221 0 0 0-8.481248 15.007035V642.818821a6.207455 6.207455 0 0 0 2.137366 4.320207v2.273793l4.229255 4.320207 2.114627 2.046414L503.257101 894.982478a35.289269 35.289269 0 0 0 16.871545 0l437.887078-239.203036 2.137365-2.273793 4.229256-4.320207v-2.046414l2.023675-4.320207v-514.559381z m-875.819631 10.686827l404.189464-222.149587V390.882544L90.586389 613.032132v-474.085865z m18.986173 501.826141L511.647398 420.896613l402.074836 219.875795L511.647398 860.648202z m823.113107-501.826141V613.032132l-404.189464-222.149588v-474.085864z"  horiz-adv-x="1024" />

    
    <glyph glyph-name="II-changjinghuashitu" unicode="&#58898;" d="M1069.7216 896H82.2784A82.3296 82.3296 0 0 1 0 814.08v-860.16A82.3296 82.3296 0 0 1 82.2784-128h987.4432A82.3552 82.3552 0 0 1 1152-46.08V814.08A82.3552 82.3552 0 0 1 1069.7216 896z m41.1392-942.08a38.784 38.784 0 0 0-41.1392-40.96H82.2784a38.784 38.784 0 0 0-41.1392 40.96V650.24h1069.7216v-696.32z m0 737.28H41.1392V814.08a38.784 38.784 0 0 0 41.1392 40.96h987.4432a38.784 38.784 0 0 0 41.1392-40.96V691.2zM411.4176 773.12a41.1648 41.1648 0 1 1 41.1392 40.96 41.1136 41.1136 0 0 1-41.1392-40.96z m-164.5568 0a41.1392 41.1392 0 1 1 41.1392 40.96 41.1136 41.1136 0 0 1-41.1392-40.96z m-164.5824 0a41.1392 41.1392 0 1 1 41.1392 40.96 41.1136 41.1136 0 0 1-41.1392-40.96z m246.8608-778.24a102.4 102.4 0 0 1 81.92 40.96h123.8784V76.8h-104.96a102.9376 102.9376 0 0 1 2.0736 20.48 98.0992 98.0992 0 0 1-5.76 32.256l42.9824 29.184h65.6384v40.96h-5.12l121.1392 81.92h151.3216v-81.92h-185.1392v-40.96h123.776a101.2736 101.2736 0 0 1-18.8416-81.92h-104.96v-40.96h123.8784a102.2208 102.2208 0 0 1 163.6608 0h123.8784V76.8h-104.96a101.2736 101.2736 0 0 1-18.8416 81.92h123.7504v40.96h-185.1392V281.6h185.1392V568.32H617.1392v-210.432l41.1392 27.648V527.36h329.1392v-204.8h-144v2.048a102.4 102.4 0 1 1-123.4176 100.352 101.2736 101.2736 0 0 1 8.8064-41.216L456.4736 199.68h-106.752V281.6h185.1392V568.32H123.4176V281.6h144v40.96H164.5568v204.8h329.1648v-204.8h-144v2.048a102.9632 102.9632 0 1 1-41.1648 0v-124.928H123.4176v-40.96h123.776A101.3504 101.3504 0 0 1 228.352 76.8h-104.96v-40.96h123.8784a102.4 102.4 0 0 1 81.8688-40.96z m555.52 102.4a61.7216 61.7216 0 1 0-61.696 61.44 61.696 61.696 0 0 0 61.5936-61.44zM822.9632 486.4a61.44 61.44 0 1 0-61.7216-61.44 61.696 61.696 0 0 0 61.6192 61.44z m-70.144-135.936a102.016 102.016 0 0 1 49.5616-25.856v-2.048h-90.752l41.1904 27.904zM267.52 424.96a61.7216 61.7216 0 1 0 61.7216-61.44 61.7216 61.7216 0 0 0-61.824 61.44z m61.7216-266.24a61.44 61.44 0 1 0-61.7216-61.44 61.7216 61.7216 0 0 0 61.6192 61.44z"  horiz-adv-x="1152" />

    
    <glyph glyph-name="jiantou" unicode="&#58907;" d="M520.241951 346.536585v-124.878048l291.465366 164.839024L520.241951 546.341463v-120.132683H212.292683V346.536585h307.949268zM512-128A512 512 0 1 0 1024 384 512.499512 512.499512 0 0 0 512-128z m0 999.02439A487.02439 487.02439 0 1 1 999.02439 384 487.523902 487.523902 0 0 1 512 871.02439z"  horiz-adv-x="1024" />

    
    <glyph glyph-name="silogo" unicode="&#58915;" d="M1185.989665 547.333889q-57.929655 216.036006-258.603101 300.636773t-440.606767 20.270045q-274.605768-73.612269-400.920154-234.492416t-66.784464-382.783797q55.369228-206.114352 205.260877-300.636773c41.393566-3.84064 111.591932-7.041174 140.183364-7.041173 78.946491 0 103.057176 28.378063 103.057176 79.586598 0 34.565761-16.856143 52.275379-75.532589 86.627771l-117.139523 69.771628c-82.573762 48.648108-104.764127 92.815469-104.764127 154.692449 0 97.296216 56.756126 168.134689 222.117019 168.134689 58.676446 0 140.396733-8.748125 170.481747-16.002667 8.961494-1.706951 16.002667-7.894649 16.002667-16.856143v-65.50425c0-8.748125-6.187698-16.002667-15.149191-16.002667h-1.706951c-58.676446 5.334222-117.139523 8.748125-174.962494 8.748124-65.71762 0-93.242207-23.043841-93.242207-62.730455 0-29.231539 15.149192-46.941157 72.758793-78.733122l106.684447-52.06201c97.722954-53.98233 123.54059-110.525088 123.54059-180.510085 0-56.116019-22.190365-114.579097-82.573762-150.425071a790.723787 790.723787 0 0 1 138.476413 12.375396v420.336723a17.666944 17.666944 0 0 0 17.709618 17.709618h81.720287a17.666944 17.666944 0 0 0 17.709618-17.709618v-392.812136q252.202034 73.612269 363.367228 231.71862 116.499417 166.107685 52.915486 403.693949z m-413.722287-141.036839a17.666944 17.666944 0 0 0-17.709618-17.709619h-86.201034c-9.814969 0-18.563094 7.894649-18.563094 17.709619v77.879646c0 9.814969 8.961494 17.709618 18.563094 17.709618h86.201034a17.666944 17.666944 0 0 0 17.709618-17.709618v-77.879646z"  horiz-adv-x="1208" />

    
    <glyph glyph-name="nilogo" unicode="&#58911;" d="M283.630435 313.956522c-2.608696 0-4.347826-1.73913-4.347826-7.173913v-387.391305c63.043478-28.478261 132.391304-44.347826 207.608695-47.391304l-195.217391 434.717391c-2.782609 5.5-5.434783 7.23913-8.043478 7.239131z m898.260869 233.260869q-57.717391 215.869565-257.608695 300.652174t-439.130435 20.217392q-273.586957-73.695652-399.565217-234.565218t-66.52174-383.043478q44.347826-166.304348 150.434783-260.217391v476.086956a35.434783 35.434783 0 0 0 35.434783 35.434783h95.652174c18.695652 0 28.26087-5.217391 38.913043-28.26087l206.304348-461.73913c1.73913-4.347826 4.347826-7.173913 7.173913-7.173913 1.73913 0 4.347826 2.608696 4.347826 8.043478v472.173913a16.217391 16.217391 0 0 0 15.673913 16.73913h77.152174a16.217391 16.217391 0 0 0 16.73913-15.673913v-598.891304c24.565217 4.782609 49.782609 10.434783 75.434783 17.391304l6.956522 1.956522v397.826087a17.673913 17.673913 0 0 0 17.608695 17.608696h81.521739a17.673913 17.673913 0 0 0 17.608696-17.608696v-358.326087q175.434783 72.065217 263.043478 197.391304 116.347826 165.978261 52.826087 403.913044z m-313.260869-141.086956a17.673913 17.673913 0 0 0-17.608696-17.608696h-85.869565c-9.782609 0-18.695652 8.043478-18.695652 17.608696v77.826087c0 9.782609 8.913043 17.608696 18.695652 17.608695h85.869565a17.673913 17.673913 0 0 0 17.608696-17.608695v-77.826087z"  horiz-adv-x="1204" />

    
    <glyph glyph-name="ctlogo" unicode="&#58912;" d="M1184.87951 546.352922q-57.868791 216.527506-258.380949 301.515619t-440.315302 20.286107q-274.503065-73.670601-400.597239-235.105309t-66.623848-384.154815q51.249114-192.504483 184.710347-287.849189c-19.00488 37.155607-30.53593 85.201652-30.53593 146.48705v127.482171c0 217.808733 141.362139 265.64124 245.56867 265.641239 66.837386 0 124.065563-10.463361 137.091379-13.879968 11.317513-3.416608 19.00488-7.900905 19.00488-19.859032v-58.295867c0-10.463361-4.270759-18.150728-17.296576-18.150727h-1.708304c-30.322392 2.562456-89.472411 7.046753-135.383075 7.046753-72.816449 0-125.773867-39.077449-125.773867-162.28886v-127.482171c0-120.648955 52.957418-162.28886 125.773867-162.28886 45.910664 0 105.060683 4.270759 135.383075 7.046753h1.708304c13.025816 0 17.296576-7.900905 17.296576-18.150728v-58.082329a26.286525 26.286525 0 0 0-0.427076-4.270759 886.438837 886.438837 0 0 1 125.560329 19.645494c-10.036285 20.499645-14.947658 49.113734-14.947658 88.831797v272.047378l-81.571506 12.171665c-9.609209 1.708304-17.296576 7.900905-17.296576 17.296576v39.077449a17.360637 17.360637 0 0 0 17.296576 17.296576h81.571506v71.108145c0 9.609209 7.900905 15.588272 17.296576 17.296576l80.717354 13.879968h3.416607c7.900905 0 13.879968-4.270759 13.879969-13.025816v-89.472411h78.154898a17.360637 17.360637 0 0 0 17.296576-17.296576v-51.249114a17.360637 17.360637 0 0 0-17.296576-17.296575h-78.154898v-272.260917c0-43.348209 2.562456-48.686658 33.738999-48.686658h2.775994q199.23093 73.670601 294.895942 209.907828 117.232348 166.55962 53.170956 405.081537z"  horiz-adv-x="1207" />

    
    <glyph glyph-name="lilogo" unicode="&#58917;" d="M0.063887 191.436478a100.85434 100.85434 0 0 1 101.755975-100.467925 101.498365 101.498365 0 0 1 104.332076 100.467925 103.044025 103.044025 0 0 1-104.332076 105.620126A102.013585 102.013585 0 0 1 0.063887 191.436478zM314.348164 896v-797.303145h430.208805V230.077987h-270.490566V896H314.348164zM942.916717 398.812579c0 121.07673 30.913208 180.327044 104.332076 180.327044 81.14717 0 112.060377-65.690566 112.060377-188.055346s-25.761006-180.327044-105.620125-180.327044-110.772327 64.402516-110.772328 188.055346z m104.332076-311.708176c195.783648 0 273.066667 127.516981 273.066667 310.420125S1255.912944 702.792453 1052.400994 702.792453c-195.783648 0-273.066667-127.516981-273.066666-310.420126s64.402516-305.267925 267.914465-305.267924zM1898.650051 664.150943c-52.810063 23.184906-115.924528 36.065409-220.256604 36.065409-194.495597 0-288.52327-135.245283-288.52327-302.691824 0-213.816352 109.484277-274.354717 233.137107-274.354717 54.098113 0 94.027673 14.168553 115.924528 33.489308h3.864151v-41.21761c0-83.72327-34.777358-114.636478-115.924529-114.636478-61.826415 0-119.788679 28.337107-149.413836 69.554717l-88.875472-117.212578c33.489308-39.92956 92.739623-81.14717 238.289308-81.14717 158.430189 0 271.778616 79.859119 271.778617 242.153459V664.150943z m-155.854088-100.467924v-283.371069a108.840252 108.840252 0 0 0-82.43522-30.913208c-70.842767 0-112.060377 30.913208-112.060378 151.989937 0 113.348428 47.657862 171.310692 130.093082 171.310692a153.535597 153.535597 0 0 0 64.402516-9.016352zM2069.960743 896h60.538364v-797.303145h-60.538364zM2697.241246 487.68805c-2.576101 124.940881-72.130818 186.767296-185.479245 186.767296a212.657107 212.657107 0 0 1-163.58239-72.130818h-3.864151V664.150943h-59.250315v-566.742138h60.538365V508.296855a167.446541 167.446541 0 0 0 157.142138 110.772327c86.299371 0 132.669182-51.522013 132.669183-145.549685v-374.822642h60.538364V487.68805h1.288051zM3095.248793 248.110692c0-54.098113-43.793711-100.467925-131.381132-100.467925a211.369057 211.369057 0 0 0-154.566038 60.538365l-39.92956-48.945912c37.353459-37.353459 105.620126-68.266667 191.919497-68.266667 127.516981 0 194.495597 78.571069 194.495598 157.142139 0 193.207547-289.811321 135.245283-289.811321 275.642767 0 50.233962 36.065409 94.027673 126.228931 94.027673 41.21761 0 87.587421-14.168553 115.924528-43.793711l39.92956 46.369812c-34.777358 34.777358-96.603774 54.098113-154.566038 54.098113-122.36478 0-188.055346-73.418868-188.055346-151.989937-1.28805-191.919497 289.811321-132.669182 289.811321-274.354717zM3289.74439 664.150943h60.538365v-566.742138h-60.538365zM3270.423636 763.330818a51.522013 51.522013 0 0 1 101.755975 0 51.522013 51.522013 0 1 1-101.755975 0zM3901.56829 647.406289a349.44805 349.44805 0 0 1-148.125786 28.337107c-186.767296 0-274.354717-119.788679-274.354717-306.555975 0-189.343396 97.891824-265.338365 212.528302-265.338364a220.385409 220.385409 0 0 1 145.549685 48.945912h3.864151v-59.250315c0-106.908176-43.793711-163.58239-153.277987-163.58239-81.14717 0-122.36478 25.761006-150.701887 50.233962l-36.065409-52.810062c20.608805-18.032704 75.994969-54.098113 173.886792-54.098114 137.821384 0 225.408805 72.130818 225.408805 220.256604v553.861635h1.288051z m-60.538365-46.369811v-379.974843a167.446541 167.446541 0 0 0-131.381132-63.114465c-82.43522 0-167.446541 46.369811-167.446541 221.544654 0 162.29434 81.14717 238.289308 198.359749 238.289308a247.692075 247.692075 0 0 0 100.467924-16.744654zM4264.798478 675.743396c-104.332075 0-154.566038-59.250314-167.44654-75.994968h-3.864151V896H4031.661372v-797.303145h60.538364V508.296855a171.954717 171.954717 0 0 0 166.158491 110.772327c85.011321 0 124.940881-60.538365 124.94088-133.957232v-386.415095h60.538365V492.840252c0 112.060377-70.842767 182.903145-179.038994 182.903144zM4727.208541 92.256604c59.250314 0 95.315723 11.592453 117.212579 23.184905l-18.032704 51.522013c-12.880503-7.728302-36.065409-19.320755-88.875472-19.320755s-87.587421 28.337107-87.587421 99.179875v347.773584h159.718239v52.810063H4649.925523v167.446541h-60.538365v-167.446541h-87.587422v-52.810063h87.587422v-354.213836c0-97.891824 46.369811-148.125786 137.821383-148.125786z"  horiz-adv-x="4844" />

    
    <glyph glyph-name="itsmlogo" unicode="&#58922;" d="M375.608741-126.934443C159.833507-126.934443 0-7.059313 0 285.968783v181.144641C0 760.141519 159.833507 885.344433 375.608741 885.344433s378.272633-122.539022 378.272633-415.567118v-181.144641c0-295.691988-159.833507-415.567118-378.272633-415.567117zM567.408949 469.777315c0 175.816857-63.933403 255.733611-194.4641 255.733611S181.144641 645.594173 181.144641 469.777315v-181.144641c0-175.816857 63.933403-255.733611 191.800208-255.733611s191.800208 79.916753 191.800208 255.733611V469.777315zM1438.501561-118.942768h-122.539022a25.040583 25.040583 0 0 0-26.638918 26.638918v436.878252c0 117.211238-10.655567 149.17794-111.883455 149.177939a351.633715 351.633715 0 0 1-149.177939-47.950052v-538.106139a25.040583 25.040583 0 0 0-23.442248-26.638918H879.084287a25.040583 25.040583 0 0 0-26.638918 26.638918V605.635796a25.040583 25.040583 0 0 0 23.442248 26.638918h120.407908a25.040583 25.040583 0 0 0 26.638918-26.638918v-26.638918a351.100937 351.100937 0 0 0 218.439126 63.933403c191.800208 0 229.094693-127.866805 229.094693-298.355879v-436.878252a33.565036 33.565036 0 0 0-31.966701-26.638918zM2160.416233 195.396462h-436.878252v-2.663892c0-79.916753 31.966701-170.489074 159.833507-170.489074 95.900104 0 186.472425 5.327784 245.078044 10.655567H2131.113424a19.712799 19.712799 0 0 0 21.311134-21.311134v-85.244537c0-21.311134-5.327784-31.966701-26.638918-31.966701a1059.163371 1059.163371 0 0 0-261.061394-21.311134c-133.194589 0-324.994797 74.58897-324.994798 335.650364v95.900104c0 207.783559 117.211238 340.978148 319.667014 340.978148s319.667014-138.522373 319.667014-340.978148v-74.58897c5.327784-23.975026-2.663892-34.630593-18.647243-34.630593z m-149.17794 127.866805c0 106.555671-58.605619 165.16129-138.522372 165.161291s-143.850156-58.605619-143.850156-165.161291v-5.327783h282.372528v5.327783zM2442.788762-118.942768h-133.194589a25.040583 25.040583 0 0 0-26.638918 26.638918V845.386056a25.040583 25.040583 0 0 0 23.442248 26.638918h136.391259a25.040583 25.040583 0 0 0 26.638918-26.638918v-937.689906a25.040583 25.040583 0 0 0-23.442248-26.638918h-3.19667zM3215.317378 717.519251H2983.558793v-809.823101a25.040583 25.040583 0 0 0-23.442248-26.638918H2823.725286a25.040583 25.040583 0 0 0-26.638918 26.638918V717.519251h-234.422476a24.507804 24.507804 0 0 0-26.638918 21.311134v106.555671a25.040583 25.040583 0 0 0 21.311134 26.638918h655.317378a25.040583 25.040583 0 0 0 26.638918-26.638918v-106.555671c5.327784-10.655567-5.327784-21.311134-21.311134-21.311134zM3556.295525-126.934443a856.174818 856.174818 0 0 0-234.422476 26.638918 25.040583 25.040583 0 0 0-26.638918 26.638917v95.900104a25.040583 25.040583 0 0 0 23.442248 26.638918h3.19667c53.277836-5.327784 186.472425-10.655567 234.422476-10.655567 117.211238 0 154.505723 42.622268 154.505724 117.211238 0 53.277836-26.638918 79.916753-111.883455 133.194589l-175.816857 106.555671c-122.539022 74.58897-159.833507 149.17794-159.833507 245.078044 0 149.17794 85.244537 255.733611 335.650364 255.733611a1388.953174 1388.953174 0 0 0 255.733611-26.638918 24.507804 24.507804 0 0 0 21.311134-26.638918v-101.227887a22.909469 22.909469 0 0 0-21.311134-21.311134c-90.57232 5.327784-175.816857 10.655567-261.061395 10.655567-101.227888 0-138.522373-31.966701-138.522372-95.900104 0-42.622268 21.311134-69.261186 111.883455-117.211239l159.833506-90.57232c149.17794-79.916753 186.472425-165.16129 186.472425-271.716962-5.327784-141.186264-90.57232-282.372529-356.961499-282.372528zM4834.96358-118.942768h-133.194589a28.770031 28.770031 0 0 0-21.311135 26.638918V525.719043c0 10.655567 0 10.655567-5.327783 10.655567a5.327784 5.327784 0 0 1-5.327784-5.327784l-127.866805-255.733611a48.48283 48.48283 0 0 0-42.622269-21.311134H4368.782518a65.531738 65.531738 0 0 0-42.622268 21.311134l-127.866806 255.733611a5.327784 5.327784 0 0 1-5.327783 5.327784 18.647242 18.647242 0 0 1-5.327784-10.655567v-618.022893a28.770031 28.770031 0 0 0-21.311134-26.638918h-133.194589a18.647242 18.647242 0 0 0-21.311134 15.983351V818.747138a50.081165 50.081165 0 0 0 46.884495 53.277836h118.276795a46.351717 46.351717 0 0 0 47.950052-31.966701l197.127992-410.239334a36.228928 36.228928 0 0 1 15.98335-21.311135 23.975026 23.975026 0 0 1 15.983351 21.311135l202.455775 410.239334a53.277836 53.277836 0 0 0 47.950052 31.966701h106.555672a50.081165 50.081165 0 0 0 53.277835-53.277836v-916.378772a33.032258 33.032258 0 0 0-31.966701-21.311134z"  horiz-adv-x="4864" />

    
    <glyph glyph-name="cpt-logo" unicode="&#58924;" d="M867.760199 700.910345c-102.4 0-177.434483-53.848276-177.434483-183.613793v-79.448276c0-129.765517 75.034483-183.613793 177.434483-183.613793s177.434483 53.848276 177.434482 183.613793v79.448276c0 129.765517-75.034483 183.613793-177.434482 183.613793zM957.801578 436.965517c0-77.682759-29.131034-116.524138-90.041379-116.524138-60.910345 0-90.041379 38.841379-90.04138 116.524138v79.448276c0 77.682759 29.131034 113.875862 90.04138 113.875862s90.041379-35.310345 90.041379-113.875862v-79.448276z m504.055172 259.531035h-52.965517a10.416552 10.416552 0 0 1-11.475862-10.593104l-0.882759-313.37931a4.413793 4.413793 0 0 0-3.531034-5.296552 7.944828 7.944828 0 0 0-5.296552 4.413793l-143.889655 307.2c-7.062069 15.006897-14.124138 18.537931-27.365517 18.537931h-67.089655a24.364138 24.364138 0 0 1-24.717242-22.951724l-0.882758-404.303448a11.917241 11.917241 0 0 1 12.35862-11.475862h52.965518a11.122759 11.122759 0 0 1 11.475862 11.475862l0.882758 300.137931c0 3.531034 0.882759 4.413793 3.531035 4.413793a6.091034 6.091034 0 0 0 5.296551-4.413793l136.827587-291.310345c9.710345-21.186207 22.951724-21.186207 37.95862-21.186207h62.675862a24.364138 24.364138 0 0 1 24.717242 22.951724l0.882758 405.186207a9.975172 9.975172 0 0 1-11.475862 10.593104z m240.110345-66.206897h124.468966a11.917241 11.917241 0 0 1 12.35862 11.475862v37.958621c0 7.944828-2.648276 11.475862-12.35862 12.358621a632.584828 632.584828 0 0 1-115.64138 7.944827c-79.448276 0-140.358621-21.186207-140.35862-121.820689v-207.448276c0-101.517241 61.793103-121.82069 140.35862-121.82069a632.673103 632.673103 0 0 1 115.64138 7.944828 11.122759 11.122759 0 0 1 12.35862 12.35862v37.958621a11.917241 11.917241 0 0 1-12.35862 11.475862h-124.468966c-35.310345 0-48.551724 11.475862-48.551724 51.2v76.8H1818.491233a11.917241 11.917241 0 0 1 12.358621 11.475862v42.372414a11.917241 11.917241 0 0 1-12.358621 11.475862h-165.075862v64.441379c0 41.489655 13.241379 53.848276 48.551724 53.848276zM1461.85675 256.882759c-17.655172-21.186207-174.786207-180.965517-450.206896-117.406897 0 0-47.668966 3.531034-180.082759 60.027586 0 0-203.034483 83.862069-290.427586 100.634483 0 0-189.793103 52.082759-360.165517-72.386207 0 0-64.441379-45.02069-87.393104-70.62069 0 0 238.344828 134.17931 437.848276 66.206897 0 0 12.358621-2.648276 196.855173-67.972414a1165.241379 1165.241379 0 0 1 377.820689-61.793103c-0.882759 0.882759 242.758621-7.062069 355.751724 163.310345zM318.684337 504.055172a302.786207 302.786207 0 0 0-4.413794 49.434483c0 140.358621 95.337931 248.055172 239.227587 254.234483a237.285517 237.285517 0 0 0 186.262069-90.924138h97.986207A312.761379 312.761379 0 0 1 557.029164 896C383.125716 896 242.767095 750.344828 242.767095 570.262069a300.137931 300.137931 0 0 1 2.648276-39.724138 130.118621 130.118621 0 0 0 73.268966-26.482759zM167.732612 248.055172A145.566897 145.566897 0 0 0 77.691233 384a143.183448 143.183448 0 0 0 141.241379 145.655172 373.583448 373.583448 0 0 0-4.413793 55.613794c0 10.593103 0.882759 21.186207 1.765518 31.77931h-1.765518C96.229164 617.048276 0.008474 518.17931 0.008474 396.358621A219.895172 219.895172 0 0 1 104.173992 207.448276a197.384828 197.384828 0 0 0 63.55862 40.606896zM2784.229164 444.027586a34.692414 34.692414 0 0 1-44.137931-22.951724c-25.6-79.448276-85.627586-125.351724-165.075862-125.351724a167.724138 167.724138 0 1 0 0 335.448276 175.051034 175.051034 0 0 0 164.193103-120.937931 35.310345 35.310345 0 1 1 67.089656 21.186207c-26.482759 84.744828-113.875862 170.372414-232.165518 170.372413a240.375172 240.375172 0 0 1-241.875862-238.344827 215.216552 215.216552 0 0 1 0.882759-23.834483v-534.068965a33.544828 33.544828 0 1 1 67.089655 0V298.372414a243.376552 243.376552 0 0 1 173.903448-73.268966c110.344828 0 197.737931 65.324138 232.165518 174.786207a34.251034 34.251034 0 0 1-22.068966 44.137931zM3188.532612 700.910345h-404.303448a32.662069 32.662069 0 1 1 0-65.324138h151.834483a15.448276 15.448276 0 0 0 15.889655-15.889655V260.413793a34.427586 34.427586 0 0 1 68.855172 0V619.696552c0 15.006897 16.772414 15.889655 17.655173 15.889655h150.068965a32.662069 32.662069 0 1 1 0 65.324138zM2249.27744 316.027586a31.161379 31.161379 0 0 1-12.358621-2.648276c-2.648276-1.765517-5.296552-2.648276-7.944827-4.413793a173.02069 173.02069 0 1 0 0 308.965517c2.648276-1.765517 5.296552-2.648276 7.944827-4.413793a24.187586 24.187586 0 0 1 11.475862-1.765517 32.573793 32.573793 0 0 1 21.186207 57.37931 53.936552 53.936552 0 0 1-12.35862 6.179311 233.048276 233.048276 0 0 1-105.048276 24.717241 238.344828 238.344828 0 0 1 0-476.689655 225.633103 225.633103 0 0 1 103.282758 24.717241 175.051034 175.051034 0 0 1 17.655173 9.710345 32.573793 32.573793 0 0 1 9.710345 23.834483 33.721379 33.721379 0 0 1-33.544828 34.427586z"  horiz-adv-x="3221" />

    
    <glyph glyph-name="I" unicode="&#58913;" d="M865.312798 895.88365V884.364959a143.983638 143.983638 0 0 1-54.998841-6.981025c-20.163527-6.282922-32.112714-15.241904-35.789387-27.109647a375.043927 375.043927 0 0 1-5.549915-84.2377v-758.721055q0-71.206454 6.399273-87.03011a53.870242 53.870242 0 0 1 24.712828-26.295194q18.32519-10.471537 65.226042-10.471537v-11.518691H495.4581v11.518691q63.09683 0 78.42018 22.106579t15.358254 100.061357V755.914101q0 81.154414-17.056971 106.344279T495.4581 884.364959V895.88365H865.312798z m-421.374662 0V884.364959a144.018543 144.018543 0 0 1-55.010476-6.981025c-20.163527-6.282922-32.112714-15.241904-35.789387-27.109647a375.043927 375.043927 0 0 1-5.549915-84.2377v-758.721055q0-71.206454 6.399273-87.03011a53.928417 53.928417 0 0 1 24.712828-26.295194q18.336825-10.471537 65.237677-10.471537v-11.518691H74.129978v11.518691q63.09683 0 78.42018 22.106579t15.358254 100.061357V755.914101q0 81.154414-17.05697 106.344279T74.129978 884.364959V895.88365h369.866334z"  horiz-adv-x="1024" />

    
    <glyph glyph-name="APM-yonghuzhuizong" unicode="&#58914;" d="M512 896A512 512 0 1 1 1024 384 512 512 0 0 1 512 896m22.209422-955.505778V95.004444a22.232178 22.232178 0 1 1-44.464355 0v-154.510222A444.074667 444.074667 0 0 0 68.448711 361.699556h154.510222a22.300444 22.300444 0 0 1 0 44.600888h-154.510222A444.074667 444.074667 0 0 0 489.745067 827.505778V672.995556a22.232178 22.232178 0 1 1 44.464355 0V827.505778A444.074667 444.074667 0 0 0 955.505778 406.300444H800.995556a22.300444 22.300444 0 0 1 0-44.600888h154.532977a444.074667 444.074667 0 0 0-421.296355-421.205334m-22.232178 559.786667a116.280889 116.280889 0 1 1 116.349156-116.280889 116.371911 116.371911 0 0 1-116.349156 116.280889"  horiz-adv-x="1024" />

    
    <glyph glyph-name="APM-yonghutiyan" unicode="&#58916;" d="M512 896C229.226422 896 0 666.773578 0 384s229.226422-512 512-512S1024 101.226422 1024 384 794.773578 896 512 896z m320.668267-832.668267a452.020325 452.020325 0 0 0-144.174214-97.202524 450.576582 450.576582 0 0 0-176.494053-35.621866 450.619465 450.619465 0 0 0-176.508348 35.621866 451.991736 451.991736 0 0 0-144.159919 97.202524 452.063208 452.063208 0 0 0-97.202524 144.159919 450.490815 450.490815 0 0 0-35.621866 176.508348 450.462226 450.462226 0 0 0 35.621866 176.494053 452.00603 452.00603 0 0 0 97.202524 144.174214 452.106092 452.106092 0 0 0 144.159919 97.202524 450.619465 450.619465 0 0 0 176.508348 35.621866 450.47652 450.47652 0 0 0 176.494053-35.607571 452.077503 452.077503 0 0 0 144.174214-97.202524 452.063208 452.063208 0 0 0 97.202524-144.174214 450.605171 450.605171 0 0 0 35.621866-176.508348 450.519404 450.519404 0 0 0-35.607571-176.508348 452.106092 452.106092 0 0 0-97.202524-144.159919z m0 0M251.440058 509.119661a69.056675 69.056675 0 0 1 34.449718-59.793847 69.042381 69.042381 0 0 1 69.042381 0 69.042381 69.042381 0 0 1 34.592663 59.793847 69.028086 69.028086 0 0 1-34.535485 59.793846 69.042381 69.042381 0 0 1-69.042381 0 69.042381 69.042381 0 0 1-34.506896-59.793846z m0 0M631.816405 509.119661a69.042381 69.042381 0 0 1 34.464013-59.793847 69.042381 69.042381 0 0 1 69.042381 0 69.056675 69.056675 0 0 1 34.52119 59.793847 69.042381 69.042381 0 0 1-34.52119 59.793846 69.042381 69.042381 0 0 1-69.042381 0A69.028086 69.028086 0 0 1 631.816405 509.119661z m0 0M775.476018 337.085488a29.246524 29.246524 0 0 1-36.751131-18.997376c-32.734379-102.734491-123.990396-171.762577-227.067955-171.762577s-194.090569 68.885142-226.939304 171.362331a29.260819 29.260819 0 0 1-36.794014 18.925904 29.246524 29.246524 0 0 1-18.925903-36.794015 308.646602 308.646602 0 0 1 106.436763-151.907532 288.491373 288.491373 0 0 1 352.659334 0.157239 308.675191 308.675191 0 0 1 106.379585 152.27919A29.246524 29.246524 0 0 1 775.476018 337.085488z m0 0"  horiz-adv-x="1024" />

    
    <glyph glyph-name="APM-fenxiyouhua" unicode="&#58918;" d="M975.237863-128H585.142718a48.761893 48.761893 0 0 0-48.761893 48.761893V310.857038a48.761893 48.761893 0 0 0 48.761893 48.761894h390.095145a48.761893 48.761893 0 0 0 48.761893-48.761894v-390.095145a48.761893 48.761893 0 0 0-48.761893-48.761893z m-24.380947 357.668486A56.807606 56.807606 0 0 1 893.976168 286.476092h-227.571755A56.783225 56.783225 0 0 1 609.523664 229.668486v-227.718041A56.953891 56.953891 0 0 1 666.404413-54.85716h227.571755A56.978272 56.978272 0 0 1 950.856916 1.950445v227.718041zM975.237863 408.380825H585.142718a48.761893 48.761893 0 0 0-48.761893 48.761893V847.237863a48.761893 48.761893 0 0 0 48.761893 48.761893h243.809466v-6.826665A46.323798 46.323798 0 0 0 853.33313 895.999756a48.761893 48.761893 0 0 0 48.761893-48.761893c0-26.819041-17.993139-24.380947-48.761893-24.380947a31.695231 31.695231 0 0 0-20.894471 0.731429L828.952184 822.856916h-170.666626c-30.793136 0-48.761893-31.93904-48.761894-62.659032v-222.841852A55.686082 55.686082 0 0 1 665.258508 481.523664h222.914995C918.917876 481.523664 950.856916 499.565565 950.856916 530.285558V700.952184l0.75581 3.413332A31.231993 31.231993 0 0 0 950.856916 725.33313c0 30.719993 13.555806 48.761893 24.380947 48.761893a48.42056 48.42056 0 0 0 41.98399-73.142839H1023.999756v-243.809466a48.761893 48.761893 0 0 0-48.761893-48.761893zM438.857038-128H48.761893a48.761893 48.761893 0 0 0-48.761893 48.761893V310.857038a48.761893 48.761893 0 0 0 48.761893 48.761894h390.095145a48.761893 48.761893 0 0 0 48.761894-48.761894v-390.095145a48.761893 48.761893 0 0 0-48.761894-48.761893z m-24.380946 357.668486A56.807606 56.807606 0 0 1 357.595343 286.476092H130.023588A56.783225 56.783225 0 0 1 73.14284 229.668486v-227.718041A56.953891 56.953891 0 0 1 130.023588-54.85716h227.571755A56.953891 56.953891 0 0 1 414.476092 1.950445v227.718041zM438.857038 408.380825H48.761893a48.761893 48.761893 0 0 0-48.761893 48.761893V847.237863a48.761893 48.761893 0 0 0 48.761893 48.761893h390.095145a48.761893 48.761893 0 0 0 48.761894-48.761893v-390.095145a48.761893 48.761893 0 0 0-48.761894-48.761893zM414.476092 766.049311A56.807606 56.807606 0 0 1 357.595343 822.856916H130.023588A56.783225 56.783225 0 0 1 73.14284 766.049311v-227.718041A56.953891 56.953891 0 0 1 130.023588 481.523664h227.571755A56.953891 56.953891 0 0 1 414.476092 538.33127V766.049311z m0 0"  horiz-adv-x="1024" />

    
    <glyph glyph-name="APM-jiankong" unicode="&#58919;" d="M662.93723 682.857803a458.728324 458.728324 0 0 1-326.455491-135.232369 458.728324 458.728324 0 0 1-135.213873-326.455492 47.352601 47.352601 0 0 1 47.352601-47.352601 47.352601 47.352601 0 0 1 47.352601 47.352601 364.596532 364.596532 0 0 0 107.468208 259.495954 364.578035 364.578035 0 0 0 259.495954 107.486705 364.578035 364.578035 0 0 0 259.495954-107.486705 364.578035 364.578035 0 0 0 107.486705-259.495954 47.352601 47.352601 0 1 1 94.705202 0 458.728324 458.728324 0 0 1-135.213873 326.455492 458.728324 458.728324 0 0 1-326.473988 135.232369z m0 0M662.93723 896C296.805438 896 0.000814 599.195376 0.000814 233.063584a659.847399 659.847399 0 0 1 106.8763-361.063584H1218.960351a659.90289 659.90289 0 0 1 106.913295 361.063584C1325.873646 599.195376 1029.069022 896 662.93723 896z m502.067052-929.294798H160.925669a566.4 566.4 0 0 0-66.164161 266.358382 564.60578 564.60578 0 0 0 44.559537 221.151445 566.418497 566.418497 0 0 0 121.821965 180.642774 566.178035 566.178035 0 0 0 401.79422 166.473989 566.178035 566.178035 0 0 0 401.812717-166.473989 566.621965 566.621965 0 0 0 121.803468-180.642774A564.60578 564.60578 0 0 0 1231.168444 233.063584a566.4 566.4 0 0 0-66.164162-266.358382z m0 0M692.884051 261.974566a118.122543 118.122543 0 0 1-43.227746-8.175722l-102.233526 102.215029a47.352601 47.352601 0 0 1-66.959537 0 47.334104 47.334104 0 0 1 0-66.959538L582.659773 186.820809a118.381503 118.381503 0 1 1 110.205781 75.13526z m0 0"  horiz-adv-x="1325" />

    
    <glyph glyph-name="APM-kehuduan" unicode="&#58920;" d="M781.183218-89.117308a127.65829 127.65829 0 0 0-40.923406-28.419032 122.042689 122.042689 0 0 0-50.608611-10.458204H334.231425a122.019954 122.019954 0 0 0-50.585876 10.458204 127.317261 127.317261 0 0 0-40.923405 28.419032A137.866406 137.866406 0 0 0 215.144316-47.284494a129.909077 129.909077 0 0 0-9.980764 51.154257V762.77158a134.137829 134.137829 0 0 0 37.558592 93.89648 131.70516 131.70516 0 0 0 40.923405 28.646384A122.019954 122.019954 0 0 0 334.231425 895.772648H689.628466a122.042689 122.042689 0 0 0 50.608611-10.458204 131.977982 131.977982 0 0 0 40.923405-28.646384 134.933562 134.933562 0 0 0 27.555093-42.287519 133.387566 133.387566 0 0 0 9.980764-51.608961v-758.901817a129.590784 129.590784 0 0 0-9.980764-51.154257 138.207434 138.207434 0 0 0-27.555093-41.832814z m-306.334425 18.642884a47.743973 47.743973 0 0 1 36.558242-16.824066 47.084651 47.084651 0 0 1 37.012947 16.824066 61.930753 61.930753 0 0 1 0 80.937402 48.130472 48.130472 0 0 1-37.012947 16.369362 48.926205 48.926205 0 0 1-36.558242-16.369362 60.56664 60.56664 0 0 1 0-80.937402z m111.584486 887.810545a15.369012 15.369012 0 0 1-10.981114 4.774397h-127.112644a16.437568 16.437568 0 0 1-10.503674-4.774397 20.461703 20.461703 0 0 1-0.47744-27.509623 14.800632 14.800632 0 0 1 10.981114-5.001749h127.112644a14.755161 14.755161 0 0 1 10.981114 5.001749 17.801681 17.801681 0 0 1 5.069955 13.641135 18.688355 18.688355 0 0 1-5.069955 13.868488z m151.211982-107.310263h-452.430981v-652.500964h452.430981V710.025858z m0 0"  horiz-adv-x="1024" />

    
    <glyph glyph-name="APM-xingnengfenxi" unicode="&#58921;" d="M560.457839-127.991126a34.563577 34.563577 0 0 0-4.846637 0.227542 37.430601 37.430601 0 0 0-33.039048 34.131247l-51.378905 747.474321-135.660332-438.927843a38.249751 38.249751 0 0 0-73.15464 1.820333l-49.05798 190.22482-83.234736-80.777286a38.818606 38.818606 0 0 0-26.82716-10.694458h-65.304454a36.884502 36.884502 0 1 0 0 73.723495h49.581326l119.504875 115.8187a39.250935 39.250935 0 0 0 36.975518 9.556749 37.407847 37.407847 0 0 0 26.667881-26.622373l31.855831-123.555116 156.252851 505.370005A37.862931 37.862931 0 0 0 499.408414 895.718759a37.362339 37.362339 0 0 0 33.585148-34.131248l52.493858-763.402237 134.88669 392.509347a38.409031 38.409031 0 0 0 69.946304 4.778375l96.682447-187.49432 31.355239 60.753621a38.135981 38.135981 0 0 0 33.949215 20.478748h261.240568a36.884502 36.884502 0 1 0 0-73.723495h-237.781024l-54.814784-106.26195a38.386276 38.386276 0 0 0-67.898428 0l-89.65141 173.841821-166.947309-485.801424A37.885685 37.885685 0 0 0 560.480593-127.991126z m0 0"  horiz-adv-x="1251" />

    
    <glyph glyph-name="APM-jiaoyituopu" unicode="&#58923;" d="M893.85877 132.779687a130.433192 130.433192 0 0 1-74.318703-23.210373l-193.62457 139.717342a228.53115 228.53115 0 0 1 29.445316 112.41102c0 7.281686-0.364084 14.563371-1.023987 21.617504l198.2894 117.189627a79.643436 79.643436 0 1 1-33.017893 39.594165l-176.512609-104.219124a230.124018 230.124018 0 0 1-103.85504 125.15397l35.29342 176.353322c2.525835-0.227553 5.074425-0.455105 7.668525-0.455106a79.529659 79.529659 0 1 1-55.181523 22.300162l-35.589239-177.94619a230.715655 230.715655 0 0 1-182.702041-22.98282L198.935661 654.785519a105.129335 105.129335 0 1 1-33.22269-38.456401l101.852577-89.655754a228.849723 228.849723 0 0 1 11.627941-340.191246L188.695791 89.772232a103.786774 103.786774 0 0 1-58.048687 17.521556 104.67423 104.67423 0 1 1 92.431896-55.067747l99.076434 105.58444a229.168297 229.168297 0 0 1 273.996174 50.289141l187.75371-135.621393a130.387682 130.387682 0 1 1 109.953452 60.301458z m0 0"  horiz-adv-x="1024" />

    
    <glyph glyph-name="APM-xingnengguanli" unicode="&#58926;" d="M923.740586 22.826966H126.923404a118.287667 118.287667 0 0 0-126.416497 125.409385L0.075288 766.65089v0.239788a124.69002 124.69002 0 0 0 123.491077 129.006213h796.817182a130.037303 130.037303 0 0 0 94.812373-35.728486 126.34456 126.34456 0 0 0 32.155637-93.997092l-0.599471-617.695174a119.318757 119.318757 0 0 0-123.0115-125.649173zM68.846629 766.171313l0.407641-617.695174a50.019881 50.019881 0 0 1 57.669134-56.110508h796.817182a50.835162 50.835162 0 0 1 54.240158 56.110508l0.623451 618.894116a60.906279 60.906279 0 0 1-12.588897 44.360873 66.445393 66.445393 0 0 1-45.559814 14.627098H123.638301A55.151355 55.151355 0 0 1 68.846629 766.171313z m697.161082-265.685657l66.421415-47.238334c13.955691-9.831328 24.890046-3.596827 25.057898 13.428156l2.206054 182.479047a19.422868 19.422868 0 0 1-28.223106 19.902446l-168.571315-64.503106c-15.873999-5.994712-17.528539-18.703503-3.908553-28.295043L715.700084 535.974354l-192.502207-242.426173-158.716007 215.330072a30.261309 30.261309 0 0 1-42.778269 6.234501 32.659194 32.659194 0 0 1-7.193655-7.673232l-122.292134-185.356509a31.172505 31.172505 0 0 1 9.735413-42.682353 30.309266 30.309266 0 0 1 41.099749 8.392597l100.06374 151.78612 155.646715-215.090283a30.716907 30.716907 0 0 1 48.293404-0.719366zM278.925333-97.067284a31.028632 31.028632 0 0 0 30.549055 30.932717H737.281049a30.932716 30.932716 0 0 0 0-61.865433H309.474388a31.172505 31.172505 0 0 0-30.549055 30.932716z"  horiz-adv-x="1048" />

    
    <glyph glyph-name="APM-yewufenxi" unicode="&#58927;" d="M922.942578 794.965333a345.042489 345.042489 0 0 1-537.031111-425.984c-3.413333-2.048-59.778844-57.571556-59.778845-57.571555a59.300978 59.300978 0 0 1-61.963378-12.515556L16.839111 51.768889a57.435022 57.435022 0 0 1 0-81.237333l81.692445-81.692445a57.275733 57.275733 0 0 1 81.123555 0l247.330133 247.352889a57.230222 57.230222 0 0 1 12.583823 62.122667s55.409778 56.206222 57.594311 59.392A345.065244 345.065244 0 0 1 922.965333 794.965333zM416.881778 310.272l21.344711-21.390222-41.415111-41.415111-21.367467 21.390222z m450.036622 52.792889a265.898667 265.898667 0 1 0 77.824 187.960889 264.510578 264.510578 0 0 0-77.824-187.960889z m10.103467-10.012445"  horiz-adv-x="1024" />

    
    <glyph glyph-name="APM-guzhangdingwei" unicode="&#58928;" d="M511.987301 895.873C229.260177 895.873 0.063501 666.676324 0.063501 383.9365s229.196676-511.9365 511.9238-511.9365 511.9365 229.196676 511.9365 511.9365S794.727125 895.873 511.987301 895.873z m0-982.90284C251.878855-86.97904 41.020961 123.840754 41.020961 383.9365s210.819794 470.96634 470.97904 470.96634 470.97904-210.819794 470.97904-470.96634S772.108447-86.97904 511.987301-86.97904z m0 0M467.804044 118.976659a40.95746 40.95746 0 1 1 40.95746 40.95746 40.95746 40.95746 0 0 1-40.95746-40.95746z m0 0M534.148779 272.227409a25.399975 25.399975 0 1 0-50.79995 0V665.825425a25.399975 25.399975 0 0 0 25.399975 25.399975 25.399975 25.399975 0 0 0 25.399975-25.399975v-393.598016z m0 0M511.987301 896C229.564977 896 0.6096 667.044624 0.6096 384.622299s228.955376-511.390401 511.377701-511.3904 511.390401 228.955376 511.3904 511.3904S794.422325 896 511.987301 896z m0-969.377353c-252.945653 0-457.999653 205.054-457.999653 457.999652S259.054348 842.660052 511.987301 842.660052s457.999653-205.1048 457.999653-458.037753-205.0413-457.999653-457.999653-457.999652z m0 0"  horiz-adv-x="1024" />

    
    <glyph glyph-name="APM-yunyingjuece" unicode="&#58929;" d="M326.341764 771.500105a400.122567 400.122567 0 0 0 429.816053-37.771024 117.43148 117.43148 0 0 1 60.297117-139.934819 120.366698 120.366698 0 0 1 149.718879 34.813053 117.135683 117.135683 0 0 1-9.328988 151.994242 120.207422 120.207422 0 0 1-152.904387 16.610149 481.739835 481.739835 0 0 1-522.40057 40.273924l1.706522-1.592754a193.223818 193.223818 0 0 0 43.095374-64.392771zM113.845622 423.142044a387.47155 387.47155 0 0 0 33.538849 157.68265h7.576958A117.909306 117.909306 0 0 1 198.762165 808.816057 120.275683 120.275683 0 0 1 53.95807 761.716045a117.135683 117.135683 0 0 1 20.091454-149.491343 467.723599 467.723599 0 0 1-6.257248-363.14792 474.071862 474.071862 0 0 1 256.160356-260.301517 196.614109 196.614109 0 0 0 17.998121 78.727557A393.387493 393.387493 0 0 0 113.845622 423.142044z m785.204985 91.697125a393.36474 393.36474 0 0 0-279.642101-470.772585 120.161915 120.161915 0 0 1-142.028153 58.704363 118.318871 118.318871 0 1 1 152.449315-137.43192 478.326791 478.326791 0 0 1 293.749352 217.979767 467.996643 467.996643 0 0 1 50.513056 359.734875 196.591355 196.591355 0 0 0-75.086976-28.2145z m0 0"  horiz-adv-x="1024" />

    
    <glyph glyph-name="APM-logo" unicode="&#58925;" d="M547.193531 475.465539c-11.762544 0-39.898548-1.129204-50.061386-2.258408v-133.810697c9.410035-0.564602 40.46315-1.693806 50.061386-1.693806 60.694725 0 84.690314 22.489983 84.690314 67.469951v5.081418c0 47.144275-28.230105 65.211542-84.690314 65.211542zM1186.323102 547.452307q-57.871715 216.430803-258.587759 300.556515T486.875207 868.240397Q212.196287 794.653924 85.819518 633.742327t-66.811247-382.894321c6.022422-22.678184 13.079949-44.133064 20.890277-64.835141l77.632788 296.792502c13.45635 52.319794 53.9195 57.307113 78.10329 57.307112s64.64694-5.081419 78.10329-57.307112l92.218342-352.499908a23.901489 23.901489 0 0 1 0.564602-2.823011 9.410035 9.410035 0 0 0-10.162838-9.410035h-59.565521a11.856644 11.856644 0 0 0-10.727439 9.410035l-25.877596 106.803896H130.987686l-26.065797-106.803896a11.856644 11.856644 0 0 0-10.727439-9.410035H70.292961a435.778717 435.778717 0 0 1 207.961772-197.610733q194.787723-88.548429 466.455431-15.808859 250.118728 66.999449 368.779268 213.137291h-47.897078a10.633339 10.633339 0 0 0-9.410035 11.197942V390.398824c0 3.952215-0.564602 5.646021-1.693806 5.646021a9.410035 9.410035 0 0 1-2.82301-3.387613l-53.9195-107.368498a20.325675 20.325675 0 0 0-17.973167-9.410035h-56.46021a20.325675 20.325675 0 0 0-17.973166 9.410035l-54.484103 107.368498a9.410035 9.410035 0 0 1-2.82301 3.387613c-1.129204 0-1.693806-1.693806-1.693806-5.646021v-261.41077a10.633339 10.633339 0 0 0-9.410035-11.197942h-56.46021a8.563132 8.563132 0 0 0-9.410035 8.469032V513.011579a22.584084 22.584084 0 0 0 22.489984 22.489983h46.109171a23.619188 23.619188 0 0 0 20.796177-13.45635l84.690314-172.015438a6.398824 6.398824 0 1 1 12.327146 0l84.690314 172.015438a23.619188 23.619188 0 0 0 20.796178 13.45635h46.109171a22.584084 22.584084 0 0 0 22.489983-22.489983v-371.131777l1.223305 1.599705q117.249035 166.087116 53.543098 403.9728zM709.422533 405.172579c0-99.464069-75.280279-131.740489-161.852601-131.740489-14.585554 0-37.075538 1.693806-50.061386 2.258408v-146.702444a10.82154 10.82154 0 0 0-10.72744-11.197942h-56.460209a11.292042 11.292042 0 0 0-11.197942 11.197942v386.752435c0 11.197942 6.775225 15.150156 17.973167 16.843962a768.141151 768.141151 0 0 0 110.191509 7.339828c86.572321 0 161.852601-30.394413 161.852601-129.858482v-5.081419zM195.634626 474.336335c-5.646021 0-7.339827-2.258408-9.410035-9.410035l-40.46315-166.934019h99.369969l-40.46315 166.934019c-1.693806 7.151627-3.387613 9.410035-9.033634 9.410035z"  horiz-adv-x="1208" />

    
    <glyph glyph-name="Ilogo" unicode="&#58930;" d="M864.286997 895.188957v-11.586332a142.164291 142.164291 0 0 1-54.919212-6.951799q-30.240326-9.269065-35.685902-26.996153a375.397149 375.397149 0 0 1-5.561439-84.232632v-758.209549q0-71.140077 6.372482-86.897489a53.876443 53.876443 0 0 1 24.678887-26.300973q18.306404-10.427699 65.115184-10.427698v-11.586332H495.030604v11.586332q63.029645 0 78.323603 22.01403t15.293958 100.105906V756.152976q0 81.104322-17.031908 106.246662T495.030604 884.413668v11.586332h369.256393zM443.587291 895.188957v-11.586332a142.164291 142.164291 0 0 1-54.919212-6.951799q-30.240326-9.269065-35.685902-26.996153a375.397149 375.397149 0 0 1-5.561439-84.232632v-758.209549q0-71.140077 6.372482-86.897489a53.876443 53.876443 0 0 1 24.678887-26.300973q18.306404-10.427699 65.115184-10.427698v-11.586332H74.330899v11.586332q63.029645 0 78.323602 22.01403t15.293958 100.105906V756.152976q0 81.104322-17.031908 106.246662T74.330899 884.413668v11.586332h369.256392z"  horiz-adv-x="1024" />

    
    <glyph glyph-name="Si-quanmianziyuanguanli" unicode="&#58931;" d="M995.195968 565.275094L512.010752 895.784964 28.825535 565.275094l483.20672-330.509869z m-483.185216-402.116757L85.809996 442.059639l-56.984461-59.349853 483.20672-327.929442 483.185217 327.929442-57.005964 59.349853z m0-182.350273L85.809996 261.859723l-56.984461-59.134817 483.20672-330.50987 483.185217 330.50987-57.005964 59.134817z m0 0"  horiz-adv-x="1024" />

    
    <glyph glyph-name="Si-shishijiankongyingjianjiankangzhuangtai" unicode="&#58932;" d="M1589.637352 896a226.209743 226.209743 0 0 1-224.574072-227.253788 228.47184001 228.47184001 0 0 1 35.079911-122.153261l-154.205442-156.95476a278.65560199 278.65560199 0 0 1-345.26567101-17.74876501l-69.22018099 70.64704301a199.41258899 199.41258899 0 1 1-359.325476 23.317004l-117.28105099-119.369141a221.72034998 221.72034998 0 0 1-124.48496201 37.93363398 227.462597 227.462597 0 1 1 224.574072-227.253788 229.028664 229.028664 0 0 1-25.196285 104.75251201l112.200033 114.148916a197.324499 197.324499 0 0 1 209.71383201-13.22456899l80.043448-81.43550801a285.99871801 285.99871801 0 0 1-28.22401601-124.24135101 280.743692 280.743692 0 1 1 561.45258201 0 285.650703 285.650703 0 0 1-42.24902 149.99446l159.11245299 161.82697002a221.26793001 221.26793001 0 0 1 107.71063901-27.84119901 227.462597 227.462597 0 0 1 0 454.85559101z m0 0"  horiz-adv-x="1813" />

    
    <glyph glyph-name="Si-liuliangfenxi" unicode="&#58933;" d="M513.075178 895.784964a511.784964 511.784964 0 1 1 513.376229-511.784964A512.623604 512.623604 0 0 1 513.075178 895.784964z m-39.824611-727.895842a33.244519 33.244519 0 1 0-66.467535 0.860143V516.246955l-85.77774-85.584208a33.180008 33.180008 0 0 0-47.157329 0 32.792944 32.792944 0 0 0 0 46.877782l142.224612 141.923562a33.287526 33.287526 0 0 0 36.319529 6.881142 34.405712 34.405712 0 0 0 20.858463-30.750105v-427.706006z m287.524234 125.580849l-148.374633-147.944562a33.481058 33.481058 0 0 0-23.954977-9.891642 36.964637 36.964637 0 0 0-13.138681 2.150357 34.620748 34.620748 0 0 0-20.879967 30.965141V596.240235a32.921966 32.921966 0 0 0 33.24452 33.115498 34.620748 34.620748 0 0 0 34.018647-33.115498V248.742545l91.970769 91.820244a33.30903 33.30903 0 0 0 47.114322-47.092818z"  horiz-adv-x="1026" />

    
    <glyph glyph-name="Si-zidongxunjian" unicode="&#58934;" d="M888.12716 234.091684V737.953467h-199.657591V896H333.572541v-158.046533H133.93854v-503.861783H15.049804V-127.76411h354.897029v153.092836H654.053167v-153.092836h354.920618V234.091684h-120.775858z m-234.026814-152.149274H369.946833v152.149274H189.349182V681.339783h144.176181v-147.195577h354.897028V681.339783h144.19977v-447.248099H654.053167v-152.149274z"  horiz-adv-x="1024" />

    
    <glyph glyph-name="Si-yunpingtaijiance" unicode="&#58935;" d="M1400.516446 448.706624a337.331177 337.331177 0 0 1-243.285799 103.244552 324.249783 324.249783 0 0 1-40.59452-2.250563 431.911063 431.911063 0 0 1-115.144401 219.429837 414.216016 414.216016 0 0 1-596.680365 0 435.399435 435.399435 0 0 1-123.58401-306.076491c0-9.846211 0.337584-19.411101 0.956489-29.257311A290.491346 290.491346 0 0 1-0.008557 140.09825a294.739283 294.739283 0 0 1 168.792182-268.09825l1120.18932 0.843961 48.640281 25.600148a349.681138 349.681138 0 0 1 62.875088 50.918975 359.696141 359.696141 0 0 1 0.028132 499.34354z m-222.974474-326.050233a27.006749 27.006749 0 0 0-19.523629-8.158289h-200.35632a28.13203 28.13203 0 0 0-27.625654 28.413351 29.341708 29.341708 0 0 0 0.56264 5.626406l-103.469608 340.116248-153.65715-492.591853a27.28807 27.28807 0 0 0-35.19317-16.879218 27.935106 27.935106 0 0 0-17.638783 20.817702l-109.714919 246.999228-73.677787-117.591888a26.837957 26.837957 0 0 0-23.265189-13.222054 23.82783 23.82783 0 0 0-8.833458-1.687922h-62.143655a28.272691 28.272691 0 0 0 0 56.545381h54.773063l92.666908 148.255801a28.497747 28.497747 0 0 0 13.250187 11.252812 0.42198 0.42198 0 0 1 0.450112 0.28132 27.513126 27.513126 0 0 0 36.402847-13.784695l102.766308-231.52661 156.498485 501.594103a27.344334 27.344334 0 0 0 35.277566 16.879218 27.906974 27.906974 0 0 0 10.380719-6.751687 28.525879 28.525879 0 0 0 10.999624-15.191297l125.018743-411.008965h176.303435a27.006749 27.006749 0 0 0 19.523629-8.158288 29.032255 29.032255 0 0 0 0.225056-40.228804z"  horiz-adv-x="1502" />

    
    <glyph glyph-name="Si-yewufuwu" unicode="&#58936;" d="M824.882748 285.943721A206.971861 206.971861 0 1 1 1030.026806 78.864343a206.262243 206.262243 0 0 1-205.144058 207.079378z m-308.146157 196.112558a206.864343 206.864343 0 1 1-205.144057 206.864343 206.068711 206.068711 0 0 1 205.144057-206.864343z m0 376.957581a170.093238 170.093238 0 1 0-168.587988-170.093238 169.31911 169.31911 0 0 0 168.587988 170.093238zM208.80547 285.943721A206.971861 206.971861 0 1 1 413.949527 78.864343a206.090214 206.090214 0 0 1-205.144057 207.079378z m0-376.957581a169.98572 169.98572 0 1 0 168.587988 169.878203 169.276102 169.276102 0 0 0-168.587988-169.878203z m597.584208 479.099538v-63.00546h31.395212v94.830744h-305.350693v42.146997h-31.395212v-42.146997H196.548435v-94.830744h31.395212v63.00546h273.095338v-20.643427h31.395212v20.643427h273.955481z"  horiz-adv-x="1030" />

    
    <glyph glyph-name="Ni-shibienengli" unicode="&#58937;" d="M545.135379 638.05801a27.964659 27.964659 0 0 0 22.57278-16.906738 28.558679 28.558679 0 0 0-3.061491-28.101741 114.234717 114.234717 0 0 1 11.423472-147.362784 112.681124 112.681124 0 0 1 146.494601-11.423472 28.33021 28.33021 0 0 0 44.711468-19.648371 256.228469 256.228469 0 0 0-141.331192-260.683623 253.463989 253.463989 0 0 0-291.138598 49.120928 257.050959 257.050959 0 0 0-48.915306 292.897813 254.240785 254.240785 0 0 0 259.198572 142.107988z m-30.295047-765.829541a511.771531 511.771531 0 1 0 508.824275 511.771531 510.309326 510.309326 0 0 0-508.824275-511.771531z m-11.423472 77.222669a439.369567 439.369567 0 0 1 445.766712 434.091923 434.34324 434.34324 0 0 1-868.663633 0c0-239.664436 175.578759-434.091923 422.896921-434.091923z m11.423472 0"  horiz-adv-x="1024" />

    
    <glyph glyph-name="Ni-xingnengzhibiao" unicode="&#58938;" d="M5.255439-65.422355H1131.544695v-62.577645H5.255439v62.577645zM0.352169 220.105083l141.192505 86.687648 261.986324-125.967988 287.694629 412.579021 293.816944-214.551927 141.598854 5.959776v-38.467643l-158.746754-7.314271-265.643459 192.067319-285.256539-405.53565-271.765774 131.927763-144.87673-86.416748v49.0327zM992.84446 437.907797l65.665892 2.708989V655.710511a34.2958 34.2958 0 0 1-34.702148 33.862362h-101.966345a34.2958 34.2958 0 0 1-34.702149-33.862362v-140.596528z m-39.930498-160.643046l-65.801342 47.407307v-332.663846h171.370642V282.140931zM678.818458 667.359163l102.941581-75.309893V862.135471a34.2958 34.2958 0 0 1-34.702149 33.862362h-101.939255a34.2958 34.2958 0 0 1-34.702149-33.862362v-292.841709z m28.471474-212.655634l-96.873446-137.61664v-325.078677h171.397732V400.794648z m-281.734854-400.65947l-89.396636 43.343824v-105.379671h171.370643v178.793272z m-37.925845 195.318105l120.116571 172.291699v22.755508a34.34998 34.34998 0 0 1-34.702149 34.133261h-102.074705a34.34998 34.34998 0 0 1-34.702148-34.133261v-170.395407z m-251.746346 121.091808l96.412918-46.323712v241.641817a34.2958 34.2958 0 0 1-34.702149 33.862362H95.600221a34.2958 34.2958 0 0 1-34.702149-33.862362v-241.370918z m7.639349-179.335071l-82.624164-49.303599v-143.847315a34.37707 34.37707 0 0 1 0.514708-5.959775h170.368317a34.37707 34.37707 0 0 1 0.514708 5.959775V148.045977z"  horiz-adv-x="1132" />

    
    <glyph glyph-name="Ni-yonghutiyan" unicode="&#58939;" d="M512 896A512 512 0 1 1 1024 384 512.546133 512.546133 0 0 1 512 896z m0-950.044444A438.044444 438.044444 0 1 0 950.089956 384 438.4768 438.4768 0 0 0 512-54.044444z m105.472 428.032a189.8496 189.8496 0 1 1-210.875733 0 287.880533 287.880533 0 0 1-182.385778-267.832889v-0.910223a30.060089 30.060089 0 0 1 30.1056-30.037333 25.031111 25.031111 0 0 1 23.301689 30.037333v1.137778a234.541511 234.541511 0 0 0 469.060266-0.227555c0-0.227556-1.547378-30.947556 23.392712-30.947556a29.923556 29.923556 0 0 1 29.923555 29.809778 0.364089 0.364089 0 0 1 0 0.227555v0.910223a288.039822 288.039822 0 0 1-182.408533 267.832889z m-105.472 14.791111a135.736889 135.736889 0 1 0 135.668622 135.623111 135.668622 135.668622 0 0 0-135.668622-135.623111z m0 0"  horiz-adv-x="1024" />

    
    <glyph glyph-name="Ni-jiaoyifenxi" unicode="&#58940;" d="M585.497138 564.135623a41.483047 41.483047 0 0 1 6.988991-25.25055 34.494055 34.494055 0 0 1 25.0251-9.919859v62.450022a67.635403 67.635403 0 0 0-35.621313 14.879788 38.326728 38.326728 0 0 0-11.047115 28.406869 39.904888 39.904888 0 0 0 11.498018 29.985029 55.235579 55.235579 0 0 0 34.944958 13.076178v19.614267H631.26376v-19.614267a50.952004 50.952004 0 0 0 33.141348-13.301629 40.130339 40.130339 0 0 0 10.370762-29.083224h-16.908851a39.904888 39.904888 0 0 1-7.214443 19.614267 27.955967 27.955967 0 0 1-19.388816 7.665346v-56.588287l12.625276-3.38177 7.890797-2.705416 4.959929-2.254514 4.95993-2.930867a40.581242 40.581242 0 0 0 13.752532-14.654338 45.090269 45.090269 0 0 0 4.283575-20.966974 43.061207 43.061207 0 0 0-11.72347-32.239543 57.940995 57.940995 0 0 0-36.523117-13.301629v-22.545134h-14.203435v22.545134a54.784676 54.784676 0 0 0-38.326728 14.879789 50.050198 50.050198 0 0 0-11.272567 35.621312h17.585204z m9.243505 54.559225a42.159401 42.159401 0 0 1 22.545134-9.694408v54.108323a32.239542 32.239542 0 0 1-22.545134-7.890797 25.926904 25.926904 0 0 1-6.988992-18.937913 24.123294 24.123294 0 0 1 6.312638-17.585205z m61.097314-41.257596a45.090269 45.090269 0 0 1-24.123294 11.498019v-60.42096a30.886834 30.886834 0 0 1 22.545134 8.3417 27.955967 27.955967 0 0 1 7.890797 20.29062 29.759577 29.759577 0 0 1-6.312637 20.290621z m0 0M623.823866 388.509027a206.51343 206.51343 0 0 0-206.287979 206.287979 206.51343 206.51343 0 0 0 206.287979 206.287979 206.51343 206.51343 0 0 0 206.287979-206.287979 206.51343 206.51343 0 0 0-206.287979-206.287979z m0 371.994716a166.15764 166.15764 0 0 1-166.15764-166.833994 166.15764 166.15764 0 0 1 166.15764-166.15764 166.15764 166.15764 0 0 1 166.15764 166.15764 166.15764 166.15764 0 0 1-166.15764 166.15764z m0 18.036107M837.100837 471.926024a11.047116 11.047116 0 0 0-11.047116 11.047116 11.047116 11.047116 0 0 0 11.047116 11.047115 184.419199 184.419199 0 0 1 184.193747 184.193748 184.419199 184.419199 0 0 1-184.193747 184.193747 183.517393 183.517393 0 0 1-122.870982-47.119331 11.272567 11.272567 0 0 0-15.781594 0 11.047116 11.047116 0 0 0 0 15.556143 206.287979 206.287979 0 0 0 137.525319 52.530163 206.51343 206.51343 0 0 0 206.287979-206.287979 206.287979 206.287979 0 0 0-206.062528-206.51343zM1125.453104 213.784236a1125.678556 1125.678556 0 0 0-208.542492-74.173492 772.621753 772.621753 0 0 0-225.451343-18.261559c2.930867 0 54.333774 14.654337 72.14443 43.737561 13.076178 20.966975 17.359753 59.744606-72.14443 59.068252H410.772347l-70.115368 94.464113h-146.543373V427.061207a2.254513 2.254513 0 0 1-2.254513 2.254513H13.301629a2.254513 2.254513 0 0 1-2.254513-2.254513v-483.593131a2.254513 2.254513 0 0 1 2.254513-2.254514H191.633642a2.254513 2.254513 0 0 1 2.254513 2.254514v90.180537s306.613827-137.525319 335.471598-144.514311a618.187583 618.187583 0 0 1 155.110524 0c17.585205 6.087186 268.738001 95.591369 418.437693 193.211801s104.383972 170.441215 22.545134 132.339938z"  horiz-adv-x="1212" />

    
    <glyph glyph-name="Ni-shujufenxijuhe" unicode="&#58941;" d="M41.031402 883.935561h942.232652a8.789805 8.789805 0 0 0 8.666699-9.109882v-80.019235a8.789805 8.789805 0 0 0-8.666699-9.109882h-17.998173a8.814427 8.814427 0 0 1-8.69132-9.109883v-493.410916a8.986776 8.986776 0 0 1 8.69132-9.109882h18.022794a8.740563 8.740563 0 0 0 8.666699-8.863669v-80.265448a8.962154 8.962154 0 0 0-8.666699-9.109883H568.099639a8.765184 8.765184 0 0 1-8.666698-8.863669v-175.303678a8.814427 8.814427 0 0 1 8.666698-9.109883h175.402164a8.814427 8.814427 0 0 0 8.69132-9.109882v-80.019235a8.814427 8.814427 0 0 0-8.69132-9.109882H280.793652a8.814427 8.814427 0 0 0-8.69132 9.109882v80.019235a8.814427 8.814427 0 0 0 8.69132 9.109882h175.377543a8.814427 8.814427 0 0 1 8.69132 9.109883v175.303678a8.765184 8.765184 0 0 1-8.69132 8.863669H41.031402a8.986776 8.986776 0 0 0-8.69132 9.109883v80.265448a8.765184 8.765184 0 0 0 8.69132 8.863669h15.708391a8.962154 8.962154 0 0 1 8.666699 9.109882V776.586679a8.814427 8.814427 0 0 1-8.666699 9.109883H41.154508a8.814427 8.814427 0 0 0-8.69132 9.109882V874.825679A8.814427 8.814427 0 0 0 41.031402 883.935561z m707.788603-255.322914a8.937533 8.937533 0 0 1-6.893965 13.78793l-25.729262 1.231065-25.901611 1.231065a8.937533 8.937533 0 0 1-8.12503-13.04929l0.93561-1.969705a8.986776 8.986776 0 0 0-3.471604-11.818225l-148.392595-86.9132a8.395864 8.395864 0 0 0-9.232988 0.492426L461.218562 575.923058l-3.59471 2.462131a8.322 8.322 0 0 1-7.92806 0.984852l-3.742438-1.477278-133.398221-52.689589a9.036018 9.036018 0 0 1-5.047367-11.572013l5.416687-14.772782a8.740563 8.740563 0 0 1 11.227314-5.416686l120.644386 47.765328a8.543592 8.543592 0 0 0 8.051166-0.984852l62.735081-45.549411 4.161-2.954557a8.740563 8.740563 0 0 1 9.134503-0.738639l4.382592 2.462131 160.038471 93.560952a8.297379 8.297379 0 0 0 11.990575-3.693196 8.568214 8.568214 0 0 1 14.994373-0.738639l14.428084 23.144025z m-75.316567-105.379177v-139.849003a8.986776 8.986776 0 0 1 8.69132-9.109882h28.979274a8.986776 8.986776 0 0 1 8.69132 9.109882v139.849003a8.765184 8.765184 0 0 1-8.69132 8.863669h-29.053138a8.765184 8.765184 0 0 1-8.617456-8.863669z m-72.632844-43.82592v-96.023083a8.986776 8.986776 0 0 1 8.69132-9.109882h29.003895a8.962154 8.962154 0 0 1 8.666699 9.109882v96.023083a8.962154 8.962154 0 0 1-8.666699 9.109882h-29.003895a8.986776 8.986776 0 0 1-8.69132-9.109882z m-73.199135-55.890358v-40.132725a8.986776 8.986776 0 0 1 8.691321-9.109882h29.003895a8.962154 8.962154 0 0 1 8.666698 9.109882v40.132725a8.814427 8.814427 0 0 1-8.666698 9.109882h-29.003895a8.814427 8.814427 0 0 1-8.666699-9.109882z m-72.583601 37.42438v-77.064679a8.765184 8.765184 0 0 1 8.69132-8.863669h28.979274a8.765184 8.765184 0 0 1 8.69132 8.863669v77.064679a8.986776 8.986776 0 0 1-8.69132 9.109883h-28.979274a8.986776 8.986776 0 0 1-8.666699-9.109883z m-73.86391 9.602309v-87.159414a8.986776 8.986776 0 0 1 8.69132-9.109882h28.979274a8.986776 8.986776 0 0 1 8.69132 9.109882v87.159414a8.986776 8.986776 0 0 1-8.69132 9.109882h-28.979274a8.986776 8.986776 0 0 1-8.617456-9.109882z m-72.608223-28.560712v-58.598702a8.986776 8.986776 0 0 1 8.69132-9.109882h29.003895a8.986776 8.986776 0 0 1 8.69132 9.109882v58.598702a8.986776 8.986776 0 0 1-8.69132 9.109882h-29.003895a8.986776 8.986776 0 0 1-8.617456-9.109882zM848.979466 780.526088H172.804616a8.765184 8.765184 0 0 1-8.69132-8.863669v-482.823756a8.765184 8.765184 0 0 1 8.69132-8.863669h676.248714a8.765184 8.765184 0 0 1 8.69132 8.863669V771.662419a8.765184 8.765184 0 0 1-8.69132 8.863669z m8.69132 0"  horiz-adv-x="1024" />

    
    <glyph glyph-name="Ni-huisufenxi" unicode="&#58942;" d="M597.219099 810.323963a383.828648 383.828648 0 0 0 374.232931-298.60955h-118.575636v-85.219098h213.161982l116.519411 213.161981-74.024097 42.723784-64.885319-112.406961a469.276216 469.276216 0 0 1-519.311022 319.857206A469.276216 469.276216 0 0 1 127.942883 426.495315h85.447568a383.828648 383.828648 0 0 0 112.406961 271.421686 383.828648 383.828648 0 0 0 271.421687 112.406962zM73.795627 77.62249l74.024096 128.171352a469.504685 469.504685 0 0 1 449.399376-333.793842 469.047747 469.047747 0 0 1 469.047746 469.047747h-85.219098a383.828648 383.828648 0 0 0-341.104864-381.543954 383.828648 383.828648 0 0 0-417.185186 297.010263h118.575636v85.219099H127.942883L0 120.117805z m0 0M811.066488 392.910308a11.423472 11.423472 0 0 1-7.99643 3.427041 11.423472 11.423472 0 0 1-7.99643-3.427041l-22.846943-22.846943a11.423472 11.423472 0 0 1-2.513164-12.33735 11.423472 11.423472 0 0 1 10.509594-7.082552 10.966533 10.966533 0 0 1 7.99643 3.427041l22.846943 22.846944a11.423472 11.423472 0 0 1 0 16.221329zM657.763498 511.714413a11.423472 11.423472 0 0 1 0 16.22133 11.651941 11.651941 0 0 1-16.221329 0l-141.19411-142.564926a62.372155 62.372155 0 0 1-18.277555-44.32307 62.829094 62.829094 0 0 1 62.372156-62.829095 61.458278 61.458278 0 0 1 44.0946 18.506024l47.750112 47.978581 92.53012 92.98706a115.377064 115.377064 0 0 1 0 161.756359 112.178492 112.178492 0 0 1-80.192771 33.585006 112.406961 112.406961 0 0 1-80.192771-33.585006l-56.203481-56.203481c-24.446229-24.446229-51.634092-51.405622-84.53369-84.53369a165.41187 165.41187 0 0 1-48.43552-116.519411 165.41187 165.41187 0 0 1 48.207051-117.20482 163.355645 163.355645 0 0 1 116.290941-48.663989 163.355645 163.355645 0 0 1 116.290942 48.663989l76.080321 76.537261a11.423472 11.423472 0 0 1 0 16.221329 11.423472 11.423472 0 0 1-16.22133 0l-76.080321-76.765729a141.19411 141.19411 0 0 0-100.069612-41.809907 141.19411 141.19411 0 0 0-100.069612 41.809907 142.793396 142.793396 0 0 0-41.581436 101.211959 142.564926 142.564926 0 0 0 42.038375 100.983489c32.899598 33.128068 59.858992 60.087461 84.305221 84.533691l56.203481 56.20348a89.788487 89.788487 0 0 0 64.199911 26.730924 89.788487 89.788487 0 0 0 63.971441-26.730924 91.387773 91.387773 0 0 0 0-129.313699l-140.280232-140.96564a40.21062 40.21062 0 0 0-55.975011 0 39.982151 39.982151 0 0 0-11.651941 28.330209 39.982151 39.982151 0 0 0 11.651941 28.33021l141.194109 142.336457z"  horiz-adv-x="1182" />

    
    <glyph glyph-name="Ni-kuaisudingze" unicode="&#58943;" d="M512.612949 895.771756A511.859744 511.859744 0 1 0 150.252952 746.043765 510.878295 510.878295 0 0 0 512.612949 895.771756zM183.348316 519.16934a306.531542 306.531542 0 0 0 219.114132 153.836381l40.444817-181.453891a127.382914 127.382914 0 0 1 51.902661-233.03701l13.694633-60.941119 141.785103 51.583119-33.665973 61.169362a127.451387 127.451387 0 0 1-103.850969 201.767598c-2.282439 0-4.747473 0-7.075561-0.228244L416.134257 674.603428c153.516839 15.520584 311.758327-92.438775 321.823883-306.98803h140.369991C865.774717 788.953616 298.976669 884.587806 183.553735 519.16934z m373.977611-180.769159l2.077019 2.054195 0.136946 0.228244 0.890152 0.912975 0.844502 1.14122h0.159771l0.844502 1.141219h0.136946l0.821678 1.141219 0.844503 1.14122v0.228244l0.798853 1.141219 0.844503 1.14122 0.844502 1.369463 0.798854 1.369463 0.753205 1.14122c1.255341 2.282439 2.282439 4.336634 3.378009 6.619072v0.228244c0.547785 1.369463 1.072746 2.738927 1.552059 4.10839v0.228244c0.479312 1.369463 0.890151 2.967171 1.30099 4.336634v0.228244l0.296717 1.141219v0.456488l0.251068 0.912976v0.456488l0.20542 1.141219v0.456488l0.228243 1.141219v0.228244l0.182596 1.369463v0.228244l0.182595 1.369464v1.825951c0 1.141219 0.136946 2.054195 0.182595 2.96717s0 1.825951 0 2.738927a64.387601 64.387601 0 0 1-31.954145 55.463265l-0.890151 0.456488-0.433663 0.228244-0.912976 0.456487-0.456487 0.228244v0.228244h-0.388015l-0.456488 0.456488-0.456488 0.228244-0.867326 0.228244-0.502137 0.228244-0.798854 0.456487h-0.136946l-0.479312 0.228244-0.479312 0.228244-0.479312 0.228244-0.479313 0.228244-0.433663 0.228244h-0.228244l-0.798853 0.228244-0.433664 0.228244h-0.228244l-0.798853 0.456487h-0.524961l-0.479312 0.228244-0.502137 0.228244h-0.502137l-0.205419 0.228244-0.844502 0.228244h-0.479313l-0.502136 0.228244-0.502137 0.228244h-0.502136l-1.529234 0.456487-1.392288 0.228244h-0.228244l-1.460761 0.456488-1.552058 0.228244-1.597707 0.228244-1.597708 0.228244h-2.282439l-0.52496 0.228244h-7.189683l-0.844502-0.228244h-0.159771c-0.9358 0-1.8716-0.228244-2.8074-0.228244h-0.273893l-1.437936-0.228244-3.035644-0.684732h-0.182595l-2.989995-0.684731h-0.228244l-1.004273-0.228244-0.707556-0.228244h-0.228244l-0.912975-0.456488-0.958625-0.228244-0.524961-0.228244h-0.433663l-0.9358-0.456487h-0.251068l-1.095571-0.456488h-0.228244l-0.296717-0.228244-0.912975-0.228244-0.251069-0.228244-0.661907-0.228244-0.319541-0.228244-0.593434-0.228244-0.867327-0.456487h-0.228244l-0.547785-0.228244-0.182596-0.228244-0.890151-0.456488-0.867327-0.456488-0.753204-0.456487-0.867327-0.456488-0.547785-0.228244-0.296718-0.228244-0.639082-0.456488h-0.182596l-0.844502-0.456488-0.661907-0.456487-0.159771-0.228244-0.753205-0.456488-0.776029-0.684732-0.73038-0.456487-0.798854-0.684732-0.707556-0.456488-0.182595-0.228244-0.593434-0.456488-0.77603-0.456487-0.15977-0.228244-0.593434-0.456488-0.182595-0.228244-0.547786-0.456488-0.707556-0.684731-0.753205-0.684732-0.707556-0.684732-0.684731-0.684731-0.684732-0.684732-0.707556-0.684732-1.346639-1.369463-0.616259-0.684732-0.616258-0.684731v-0.228244l-0.547785-0.456488v-0.228244l-0.593434-0.684732-0.593435-0.684731-0.570609-0.912976-0.547786-0.684731v-0.228244l-0.502136-0.684732-0.57061-0.684732v-0.228244l-0.433663-0.684731a63.223557 63.223557 0 0 1-10.590517-35.149559 64.250655 64.250655 0 0 1 30.607506-54.778533l0.844502-0.456488 0.502137-0.456488 0.433663-0.228244 0.479312-0.228244 0.479312-0.228243 0.456488-0.228244 0.479312-0.228244 0.479312-0.228244 0.502137-0.456488 0.479312-0.228244 0.479312-0.228244 0.502137-0.228244 0.502136-0.228243 0.502137-0.228244 0.502137-0.228244 0.479312-0.228244 0.912975-0.228244 0.502137-0.228244 0.502136-0.228244 0.502137-0.228244 0.547785-0.228244 0.410839-0.228243 0.502137-0.228244h0.524961l0.36519-0.228244h0.159771l0.524961-0.228244 0.524961-0.228244h0.524961l0.524961-0.228244 0.547785-0.228244h0.456488v-0.228244h0.524961l0.547785-0.228244h0.524961l1.072746-0.228243v-0.228244h0.456488l1.072746-0.228244h0.57061l1.049922-0.228244a11.640438 11.640438 0 0 1 2.784575-0.456488l0.388015-0.228244h1.66618l1.346639-0.228244h1.848776l1.506409-0.228244h3.492132l1.552058 0.228244h2.282439l1.004273 0.228244h1.620532l1.392288 0.228244 0.228243 0.228244h0.365191l1.232517 0.228244 1.506409 0.228244h0.365191l1.118395 0.228244 0.616258 0.228244 0.912976 0.228243 0.684731 0.228244 0.77603 0.228244 0.844502 0.228244 0.707556 0.228244 0.616258 0.228244 0.912976 0.228244h0.159771l1.004273 0.228244 0.205419 0.228244 0.684732 0.228243 0.912976 0.228244 0.593434 0.228244 0.73038 0.456488 0.707556 0.228244 0.753205 0.456488 0.661907 0.228244 0.730381 0.228243 0.798853 0.456488 0.502137 0.228244 0.890151 0.456488 0.456488 0.228244 0.844502 0.456488 0.57061 0.456487 0.707556 0.228244 0.707556 0.456488 0.524961 0.456488 0.707556 0.456488 0.707556 0.456487 0.593434 0.228244 0.616259 0.456488 0.639083 0.456488 0.753204 0.456488 0.365191 0.228243 0.776029 0.684732 0.502136 0.456488 0.684732 0.456488 0.616259 0.456487 0.570609 0.456488 0.456488 0.456488 0.867327 0.684732 1.072746 0.912975v0.228244l1.004273 0.912976zM814.670911 691.265232a433.663388 433.663388 0 1 1 127.017724-306.531542 432.408047 432.408047 0 0 1-127.017724 306.531542z"  horiz-adv-x="1025" />

    
    <glyph glyph-name="Ni-zhengligongneng" unicode="&#58944;" d="M387.271249 191.194579h284.053436a49.564376 49.564376 0 0 1 48.523524 49.812197v49.812198a49.366118 49.366118 0 0 1-48.523524 49.812197H387.271249a49.341336 49.341336 0 0 1-48.498742-49.812197v-49.812198a46.144434 46.144434 0 0 1 48.498742-49.812197z m0 93.67667h284.053436v-49.812198H387.271249v49.812198z m610.856147 340.259438h-91.223233l-33.480736 109.041627a93.998838 93.998838 0 0 1-115.484995 68.894482L613.60697 763.910939 425.262343 877.661181a95.535334 95.535334 0 0 1-129.338238-34.447241l-120.094483-218.083253H54.570378a49.341336 49.341336 0 0 1-48.498742-49.812197v-98.385286a49.564376 49.564376 0 0 1 48.498742-49.812197h48.498741v-498.865441a49.564376 49.564376 0 0 1 48.498742-49.812197h750.602904a49.341336 49.341336 0 0 1 48.498741 49.812197V431.829622h47.333979a49.564376 49.564376 0 0 1 48.523524 49.812198v98.385286a56.999032 56.999032 0 0 1-48.523524 45.103581z m-226.335721 128.123911a49.192643 49.192643 0 0 0 57.742497-34.447241l24.261762-98.385285h-4.634269l-62.351984 34.447241h9.243756l-13.853243 44.85576-43.889255-15.364957v-9.417231l-57.742498 34.447241v20.073572z m-13.853243-128.123911H445.013746l77.369991 138.780252z m-423.775412 193.301065a48.350048 48.350048 0 0 0 62.376767 20.073572l81.979477-49.812197-86.737657-163.56244H227.79787zM902.319458-70.505324H151.691772V433.068732h750.602904V-70.505324z m95.83272 552.147144H54.694288v98.385286h937.68364v-98.385286h5.77425zM372.278025 684.360116l-43.889254 25.03001-23.096999-39.155857 38.115004-25.03001z m43.889255 84.259439l-38.115005 24.782187-24.261762-39.155856 38.115005-24.782188z m0 0"  horiz-adv-x="1052" />

    
    <glyph glyph-name="Ni-wentijiance" unicode="&#58945;" d="M449.144522 160.123998a30.839088 30.839088 0 0 0-20.078837 7.521728 32.238965 32.238965 0 0 0-4.053376 44.921436l127.59777 155.866934-144.876852 49.100173a32.009134 32.009134 0 0 0-20.204199 21.729439 32.510583 32.510583 0 0 0 6.05917 29.251167l157.120556 191.804083a31.027131 31.027131 0 0 0 44.21105 4.178738 32.238965 32.238965 0 0 0 4.053376-44.921436l-127.597771-155.866934 144.876853-49.100173a32.009134 32.009134 0 0 0 20.204199-21.729439 32.447902 32.447902 0 0 0-6.05917-29.251167l-157.120556-192.013019a31.340536 31.340536 0 0 0-24.132213-11.49153z m0 0l62.848222 671.941099 377.06844-166.522717v-215.62289c0-347.671017-288.625446-480.972765-377.06844-513.566922-88.442994 32.594158-377.06844 166.104843-377.068439 513.566922l0.22983 216.249701 376.838609 165.895906m0 63.934694a60.591704 60.591704 0 0 1-24.800811-5.223423L110.123494 724.671526a64.310781 64.310781 0 0 1-38.047412-59.338082v-215.413954c0-393.4282 330.266572-541.355531 418.479735-573.740752a59.860424 59.860424 0 0 1 42.873854 0c88.213163 32.385221 418.479735 180.312552 418.479735 573.740752V665.333444a64.519718 64.519718 0 0 1-38.047411 59.338082L536.793555 890.776368a60.591704 60.591704 0 0 1-24.800811 5.223423z m0 0"  horiz-adv-x="1024" />

    
    <glyph glyph-name="ni-logo" unicode="&#58946;" d="M551.139019 616.815094c-1.27517 0-2.134943-0.850113-2.134944-3.400452v-185.913963a267.592453 267.592453 0 0 1 100.08151-22.721207l-94.101736 208.664151a4.704604 4.704604 0 0 1-3.84483 3.371471z m433.267924 111.85751A206.162113 206.162113 0 0 1 860.16483 872.95034q-96.449208 40.573585-211.832755 9.708679-131.989736-35.328-192.666566-112.562717t-32.101434-183.79834q21.436377-79.872 72.510793-124.899019V689.876528a17.079547 17.079547 0 0 0 17.079547 16.982944h46.099321a17.939321 17.939321 0 0 0 18.779773-13.582491l99.501887-221.580075a4.501736 4.501736 0 0 1 3.419774-3.400453 3.352151 3.352151 0 0 1 2.134943 3.864151v226.632453a7.824906 7.824906 0 0 0 8.105057 8.066415h36.709434a7.824906 7.824906 0 0 0 8.105056-8.066415v-286.835925a513.217208 513.217208 0 0 1 36.390642 8.317585c1.139925 0.309132 2.231547 0.647245 3.371472 0.966038V612.178113a8.539774 8.539774 0 0 0 8.539773 8.501132h39.269434a8.549434 8.549434 0 0 0 8.539774-8.501132v-171.954717q84.566943 34.632453 126.860075 94.671698 56.030189 79.659472 25.445434 193.816151z m-151.04-67.699925a8.530113 8.530113 0 0 0-8.539773-8.491471h-41.404378a8.916528 8.916528 0 0 0-8.96483 8.491471v37.36634a8.916528 8.916528 0 0 0 8.96483 8.481811h41.404378a8.530113 8.530113 0 0 0 8.539773-8.481811v-37.36634zM33.845132 169.945358h20.199849a4.569358 4.569358 0 0 1 4.511396 4.762567V294.680151c0 1.429736 0.473358 1.932075 1.188227 1.932075a2.646943 2.646943 0 0 0 2.144604-1.932075l52.736-116.146717a12.761358 12.761358 0 0 1 14.490566-8.588076h23.996377a9.544453 9.544453 0 0 1 9.505811 9.534793V342.624604a4.376151 4.376151 0 0 1-4.521056 4.530717H137.694189a4.366491 4.366491 0 0 1-4.511397-4.530717V217.165283a1.932075 1.932075 0 0 0-1.188226-2.144604 2.511698 2.511698 0 0 0-1.932075 1.932076L74.727849 339.562264a9.98883 9.98883 0 0 1-10.442868 7.631698H38.617358a9.554113 9.554113 0 0 1-9.505811-9.534792v-162.912604a4.772226 4.772226 0 0 1 4.733585-4.801208z m249.691774 2.144604a4.994415 4.994415 0 0 1 4.984754 6.201963v15.736754a3.719245 3.719245 0 0 1-4.279547 3.584h-0.705207c-9.98883-0.966038-26.382491-2.386113-43.722868-2.386113-22.817811 0-28.507774 16.422642-28.507774 30.285283v0.714868h77.447245a4.830189 4.830189 0 0 1 4.762566 5.960453v13.360302c0 35.540528-19.968 60.580226-56.551849 60.580226-36.352 0-56.996226-23.368453-56.996226-60.580226v-17.64951c0-46.988075 33.743698-59.89434 57.498566-59.894339a210.190491 210.190491 0 0 1 46.08966 4.086339z m-71.998793 77.514868c0 18.837736 10.694038 29.338566 25.426113 29.338566s24.943094-10.732679 24.943095-29.338566v-0.966038H211.596075v0.966038z m167.008604-75.611773v15.031547a4.018717 4.018717 0 0 1-4.994415 3.574339h-12.558491c-8.549434 0-9.273962 1.429736-9.273962 13.360302v74.887246h21.388076a4.830189 4.830189 0 0 1 4.752905 4.772226v14.07517a4.762566 4.762566 0 0 1-4.752905 4.762566H351.671547V329.032453a3.429434 3.429434 0 0 1-3.796528 3.574339h-0.966038l-22.102943-3.86415a5.11034 5.11034 0 0 1-4.743246-4.772227v-19.562264h-22.334792a4.762566 4.762566 0 0 1-4.752906-4.762566v-10.732679a5.11034 5.11034 0 0 1 4.752906-4.772227l22.334792-3.34249v-74.887246c0-31.966189 10.925887-37.926642 37.772076-37.926641a97.482868 97.482868 0 0 1 16.152151 1.671245 4.318189 4.318189 0 0 1 4.579019 4.33751z m133.313208-4.772227h6.41449c14.490566 0 18.296755 5.728604 21.146566 20.045283l21.619925 109.712906v0.714868a4.762566 4.762566 0 0 1-4.752906 4.762566h-23.04a4.608 4.608 0 0 1-4.289208-4.289208L513.965887 199.274264a3.864151 3.864151 0 0 0-1.188227-3.33283 3.864151 3.864151 0 0 0-1.661585 3.33283l-19.71683 80.181132a10.694038 10.694038 0 0 1-13.312 10.259321h-16.625509a10.694038 10.694038 0 0 1-13.30234-10.259321l-19.72649-80.181132a3.796528 3.796528 0 0 0-1.661585-3.33283 3.941434 3.941434 0 0 0-1.188227 3.33283L410.599849 300.167245a4.608 4.608 0 0 1-4.279547 4.289208h-23.04a4.762566 4.762566 0 0 1-4.762566-4.762566v-0.705208l21.629585-109.712905c2.849811-14.316679 6.64634-20.045283 21.146566-20.045283h6.40483a21.049962 21.049962 0 0 1 22.576302 18.605886l18.770113 72.984151c0.241509 0.966038 0.241509 1.197887 0.714868 1.197887s0.473358-0.241509 0.705208-1.197887l18.770113-72.984151a21.059623 21.059623 0 0 1 22.605283-18.615547z m108.070641-1.188226c37.308377 0 56.783698 25.281208 56.783698 59.392v19.320754c0 34.101132-19.475321 59.38234-56.783698 59.38234s-56.783698-25.281208-56.783698-59.38234v-19.320754c-0.019321-34.110792 19.46566-59.392 56.764377-59.392z m-25.426113 78.712754c0 19.552604 8.790943 32.198038 25.426113 32.198038s25.426113-12.645434 25.426113-32.198038v-19.320754c0-19.562264-8.790943-32.198038-25.426113-32.198038s-25.426113 12.635774-25.426113 32.198038v19.320754z m161.328302 59.38234a55.160755 55.160755 0 0 1-33.985208-11.447547v5.013736a4.762566 4.762566 0 0 1-4.752905 4.762566h-20.663548a4.762566 4.762566 0 0 1-4.752905-4.762566V174.949434a4.984755 4.984755 0 0 1 4.752905-5.004076h21.851774a4.994415 4.994415 0 0 1 4.762566 5.004076v95.879245a67.023698 67.023698 0 0 0 32.787321 8.588076 4.772226 4.772226 0 0 1 4.743245 4.772226v17.176151a4.772226 4.772226 0 0 1-4.781887 4.762566z m120.194415-131.381132l-48.224604 65.835472 47.751245 58.928302a3.864151 3.864151 0 0 1 0.966038 2.386113c0 1.671245-1.188226 2.617962-3.564679 2.617962H846.282868a7.274264 7.274264 0 0 1-5.458113-2.898113l-40.631547-54.378264V346.672302a4.772226 4.772226 0 0 1-4.752906 4.772226h-21.851774a4.830189 4.830189 0 0 1-4.762566-4.772226V174.949434a4.994415 4.994415 0 0 1 4.762566-5.004076h21.851774a4.984755 4.984755 0 0 1 4.752906 5.004076v54.098113l37.298717-54.387924a10.056453 10.056453 0 0 1 6.897509-4.762566h28.981132a3.178264 3.178264 0 0 1 3.32317 2.898113 3.120302 3.120302 0 0 1-0.705208 1.912755zM57.426113 97.763019H33.845132a4.579019 4.579019 0 0 1-4.752906-4.530717v-167.907019a4.830189 4.830189 0 0 1 4.752906-4.772226h23.523019a4.772226 4.772226 0 0 1 4.752906 4.772226V93.222642a4.569358 4.569358 0 0 1-4.733585 4.501735z m94.787623-41.017962a61.411019 61.411019 0 0 1-38.486944-11.447548v5.004076a4.772226 4.772226 0 0 1-4.752905 4.772226H88.31034a4.830189 4.830189 0 0 1-4.762566-4.772226v-124.783094a4.994415 4.994415 0 0 1 4.762566-5.004076H110.162113a4.984755 4.984755 0 0 1 4.752906 5.004076v95.888905a60.290415 60.290415 0 0 0 26.846189 8.578415c18.296755 0 20.190189-5.960453 20.190188-26.710943v-77.756377a4.994415 4.994415 0 0 1 4.762566-5.004076h21.851774a4.984755 4.984755 0 0 1 4.675622 5.004076v77.756377c0 30.294943-6.849208 53.431547-41.066264 53.431547z m127.323773-64.637585l-31.125735 19.079245a14.239396 14.239396 0 0 0-9.505812 9.776302c0 7.390189 4.994415 10.017811 16.422642 10.017811a348.304906 348.304906 0 0 0 39.211471-2.898113h0.966038a3.864151 3.864151 0 0 1 3.806189 4.530717v13.83366a5.197283 5.197283 0 0 1-4.279547 5.487095 175.731925 175.731925 0 0 1-42.293132 4.772226c-30.179019 0-45.142943-11.930566-45.142944-35.743396a39.327396 39.327396 0 0 1 19.95834-32.912906l32.545811-20.035622c7.602717-4.772226 10.462189-7.631698 10.462189-12.162416 0-6.443472-2.134943-11.447547-16.876679-11.447547-7.129358 0-28.507774 1.188226-39.91668 2.627623h-0.966037a3.970415 3.970415 0 0 1-4.038038-3.864151v-14.307019a5.390491 5.390491 0 0 1 4.511396-5.487094 196.279547 196.279547 0 0 1 42.505661-4.772227c31.125736 0 46.563019 16.422642 46.563018 37.211774-0.038642 12.162415-2.840151 24.083321-22.846792 36.255396z m64.367095 62.966339H322.014189a4.830189 4.830189 0 0 1-4.752906-4.772226v-124.783094a4.994415 4.994415 0 0 1 4.752906-5.004076h21.851773a4.984755 4.984755 0 0 1 4.752906 5.004076V50.262943a4.772226 4.772226 0 0 1-4.752906 4.772227z m0.714868 48.417812h-23.04a4.994415 4.994415 0 0 1-4.994415-4.772227v-20.992a4.994415 4.994415 0 0 1 4.994415-4.772226h23.04a4.830189 4.830189 0 0 1 4.752905 4.772226v20.992a4.830189 4.830189 0 0 1-4.791547 4.733585z m133.999094-48.417812h-55.595472c-41.104906 0-56.551849-20.035623-56.551849-43.887094v-1.671245a36.864 36.864 0 0 1 9.747321-27.90883 23.320151 23.320151 0 0 1-9.505811-19.320755v-0.24151a27.705962 27.705962 0 0 1 10.694037-21.938717 35.907623 35.907623 0 0 1-12.123773-26.247245v-2.144604c0-25.039698 20.431698-39.607547 58.928302-39.607547 40.390038 0 58.203774 13.118792 58.203773 37.443623v1.671245c0 25.522717-20.905057 30.526792-53.219019 38.158491l-28.015094 6.67532a7.805585 7.805585 0 0 0-8.076075 7.873208 7.583396 7.583396 0 0 0 4.038037 6.201962 71.351547 71.351547 0 0 1 25.899472-4.047698c35.878642 0 56.300679 13.592151 56.300679 43.404076V11.109434a30.478491 30.478491 0 0 1-5.931471 19.079245l7.844226 3.100981a4.463094 4.463094 0 0 1 3.796528 5.245585V48.591698a6.40483 6.40483 0 0 1-6.472452 6.443472z m-82.68317-141.205736a23.667925 23.667925 0 0 0 5.941132 16.702793l21.146566-5.013736c24.943094-5.960453 28.015094-9.061434 28.015095-14.307019v-1.671245c0-8.588075-4.038038-13.592151-26.846189-13.592151-22.334792 0-28.275925 5.960453-28.275925 15.736755v2.105962z m52.504151 94.932529c0-11.930566-5.699623-18.837736-25.416453-18.837736-22.102943 0-25.667623 10.008151-25.667622 18.837736v1.932075c0 11.215698 5.467774 20.286792 25.667622 20.286793 20.431698 0 25.416453-8.819925 25.416453-20.286793v-1.932075z m113.992453 47.944453a63.507321 63.507321 0 0 1-35.868981-8.829585v49.374188a4.772226 4.772226 0 0 1-4.752906 4.762566h-21.861434a4.772226 4.772226 0 0 1-4.752905-4.762566v-171.771169a4.984755 4.984755 0 0 1 4.752905-5.004076h21.861434a4.994415 4.994415 0 0 1 4.752906 5.004076v96.362264a61.555925 61.555925 0 0 0 27.551396 8.105056c15.920302 0 19.484981-5.245585 19.484981-25.996075v-78.471245a4.994415 4.994415 0 0 1 4.752906-5.004076h21.861434a4.984755 4.984755 0 0 1 4.752906 5.004076v78.471245c-0.00966 29.338566-9.747321 52.716679-42.544302 52.716679z m126.618566-113.538415h-12.558491c-8.549434 0-9.264302 1.429736-9.264301 13.360301V31.396226h21.388075a4.772226 4.772226 0 0 1 4.743245 4.772227v14.07517a4.772226 4.772226 0 0 1-4.743245 4.772226H667.179472V79.601509a3.448755 3.448755 0 0 1-3.806189 3.57434h-0.966038l-22.093283-3.864151a5.12 5.12 0 0 1-4.752905-4.772226v-19.552604h-22.334793a4.830189 4.830189 0 0 1-4.752906-4.772226v-10.73268a5.12 5.12 0 0 1 4.752906-4.772226l22.334793-3.342491v-74.887245c0-31.966189 10.925887-37.926642 37.781735-37.926642a98.632453 98.632453 0 0 1 16.152151 1.671246 4.308528 4.308528 0 0 1 4.511397 4.289207V-60.377358a4.018717 4.018717 0 0 1-4.965434 3.545358zM410.11683 487.578566h-8.646038a4.443774 4.443774 0 0 1-3.86415-2.608302L381.618717 451.622642a2.221887 2.221887 0 0 0-1.159245-1.51668 2.250868 2.250868 0 0 0-1.159246 1.51668l-15.929962 33.260679a4.443774 4.443774 0 0 1-3.864151 2.608302h-8.694339a4.298868 4.298868 0 0 1-4.221585-4.34717v-76.751698a1.632604 1.632604 0 0 1 1.79683-1.632604h10.626415a2.03834 2.03834 0 0 1 1.690566 2.173585V459.447547c0 0.76317 0.106264 1.091623 0.318792 1.091623l0.521661-0.656906 10.24-20.760151a3.757887 3.757887 0 0 1 3.371472-1.845132h10.626415a3.786868 3.786868 0 0 1 3.381132 1.845132l10.124075 20.760151 0.531321 0.656906c0.212528 0 0.309132-0.328453 0.309132-1.091623v-52.513811a2.03834 2.03834 0 0 1 1.690566-2.173585h10.626415a1.622943 1.622943 0 0 1 1.79683 1.632604v76.751698a4.289208 4.289208 0 0 1-4.221585 4.34717m-161.019169-0.077283a13.582491 13.582491 0 0 1-14.664453-11.090114l-17.301736-69.168301-0.106264-0.550642a1.825811 1.825811 0 0 1 1.932075-1.845132h11.186717a2.250868 2.250868 0 0 1 1.999698 1.845132l4.830189 20.653887h24.266868l4.830189-20.653887a2.270189 2.270189 0 0 1 2.009358-1.845132h11.186717a1.825811 1.825811 0 0 1 1.932076 1.845132l-0.106265 0.550642-17.301735 69.168301a13.582491 13.582491 0 0 1-14.664453 11.090114m-57.295698 0c-13.717736 0-24.373132-3.806189-24.373132-22.286491v-37.936302c0-18.480302 10.626415-22.286491 24.373132-22.28649a96.024151 96.024151 0 0 1 20.045283 1.526339 1.932075 1.932075 0 0 1 2.105962 2.279849v6.955472a2.144604 2.144604 0 0 1-2.105962 2.173585H190.343245c-6.124679 0-8.336906 2.183245-8.336905 9.351245v14.026868h28.594717a2.144604 2.144604 0 0 1 2.105962 2.173585v7.824906a2.144604 2.144604 0 0 1-2.105962 2.173585h-28.594717V465.14717c0 7.17766 2.212226 9.351245 8.336905 9.351245h21.523321a2.144604 2.144604 0 0 1 2.105962 2.173585v6.955472a1.932075 1.932075 0 0 1-2.105962 2.289509 97.096453 97.096453 0 0 1-20.045283 1.516679m-36.941283 0h-9.071094a1.932075 1.932075 0 0 1-1.999698-2.06732l-0.115925-59.024906a0.850113 0.850113 0 0 0-0.52166-0.966038 1.139925 1.139925 0 0 0-0.850114 0.869434l-24.469735 57.720755a4.453434 4.453434 0 0 1-4.646642 3.477736H101.815547a4.298868 4.298868 0 0 1-4.221585-4.34717l-0.106264-76.094793a2.154264 2.154264 0 0 1 2.105962-2.173584h8.964831a2.067321 2.067321 0 0 1 2.009358 2.173584l0.106264 56.522868c0 0.656906 0.212528 0.869434 0.531321 0.869434a1.168906 1.168906 0 0 0 0.966038-0.869434l23.31049-54.784a5.651321 5.651321 0 0 1 6.443472-3.912452h10.626415a4.298868 4.298868 0 0 1 4.221585 4.347169l0.106264 76.201057a1.932075 1.932075 0 0 1-2.009358 2.067321m-95.811623 0c-17.388679 0-30.063094-10.008151-30.063094-33.917585v-14.674113c0-23.919094 12.655094-33.917585 30.063094-33.917585s30.072755 9.998491 30.072755 33.917585V453.554717c0 23.909434-12.655094 33.917585-30.072755 33.917585m0-69.351849c-10.336604 0-15.292377 6.40483-15.292377 20.760151V453.554717c0 14.34566 4.955774 20.760151 15.292377 20.760151s15.302038-6.414491 15.302038-20.760151v-14.674113c0-14.355321-4.955774-20.760151-15.302038-20.760151m180.764981 21.590943l7.593057 33.299321c0.318792 1.304151 0.637585 1.738868 1.690566 1.738868s1.371774-0.434717 1.690566-1.738868l7.593056-33.299321H239.804377m69.979774 8.69434c-1.79683 0-7.728302 0.222189-9.389887 0.328453v25.87049c1.932075 0.222189 7.17766 0.444377 9.389887 0.444378 10.549132 0 15.833358-3.487396 15.833358-12.616453v-0.966038c0-8.69434-4.434113-13.05117-15.833358-13.05117m0 39.134189a139.843623 139.843623 0 0 1-20.673208-1.410415 3.149283 3.149283 0 0 1-3.381132-3.265208l0.086944-75.901585a2.144604 2.144604 0 0 1 2.105962-2.173585h10.549132a2.067321 2.067321 0 0 1 2.009359 2.173585l-0.086944 29.493132c2.424755-0.115925 6.64634-0.434717 9.389887-0.434717 16.248755 0 30.391547 6.192302 30.391547 25.435774v0.966038c0 19.243472-14.142792 25.116981-30.391547 25.116981"  horiz-adv-x="1024" />

    
    </font>
</defs>
</svg>
