<?xml version="1.0" encoding="UTF-8"?>
<svg width="207px" height="53px" viewBox="0 0 207 53" version="1.1" xmlns="http://www.w3.org/2000/svg" xmlns:xlink="http://www.w3.org/1999/xlink">
    <!-- Generator: Sketch 50.2 (55047) - http://www.bohemiancoding.com/sketch -->
    <title>logo</title>
    <desc>Created with Sketch.</desc>
    <defs>
        <polygon id="path-1" points="0.0930403651 0.307814764 17.2147769 0.307814764 17.2147769 18.7423222 0.0930403651 18.7423222"></polygon>
        <polygon id="path-3" points="0 0.312394231 52.8250304 0.312394231 52.8250304 53 0 53"></polygon>
    </defs>
    <g id="Page-1" stroke="none" stroke-width="1" fill="none" fill-rule="evenodd">
        <g id="首页" transform="translate(-169.000000, -19.000000)">
            <g id="Navigation" transform="translate(169.000000, 0.000000)">
                <g id="logo" transform="translate(0.000000, 19.000000)">
                    <g>
                        <g>
                            <path d="M88.5005165,30.1512547 L85.5496443,30.1512547 C85.3690315,30.1512547 85.2230921,30.296178 85.2230921,30.4748996 L85.2230921,38.7595937 L77.3879105,38.7595937 L77.3879105,19.7782318 L79.688266,19.7782318 C79.8688788,19.7782318 80.0153357,19.6333085 80.0153357,19.4545869 L80.0153357,16.9355852 C80.0153357,16.7568636 79.8688788,16.6119403 79.688266,16.6119403 L70.9137941,16.6119403 C70.7326637,16.6119403 70.5862069,16.7568636 70.5862069,16.9355852 L70.5862069,19.4545869 C70.5862069,19.6333085 70.7326637,19.7782318 70.9137941,19.7782318 L73.379237,19.7782318 L73.379237,38.7595937 L70.9137941,38.7595937 C70.7326637,38.7595937 70.5862069,38.904517 70.5862069,39.0827265 L70.5862069,41.6017283 C70.5862069,41.780962 70.7326637,41.9253731 70.9137941,41.9253731 L88.5005165,41.9253731 C88.6811294,41.9253731 88.8275862,41.780962 88.8275862,41.6017283 L88.8275862,30.4748996 C88.8275862,30.296178 88.6811294,30.1512547 88.5005165,30.1512547" id="Fill-1" fill="#FFFFFF"></path>
                            <path d="M101.861724,37.1924034 C100.337843,38.5845427 98.7208772,39.2798527 97.0118718,39.2798527 C96.0203558,39.2798527 95.2364516,39.0038557 94.6601591,38.4518615 C94.0843895,37.9003739 93.7962432,37.2167114 93.7962432,36.4008742 C93.7962432,35.5247735 94.1246567,34.8107261 94.7814838,34.2592384 C95.4383108,33.7072443 96.255684,33.4307408 97.2341262,33.4307408 C98.7951363,33.4307408 100.337843,34.0070429 101.861724,35.1586343 L101.861724,37.1924034 Z M107.531041,38.5956839 L105.355563,38.5956839 L105.355563,30.5340377 C105.355563,29.1180969 105.27189,28.0865262 105.105069,27.4383129 C104.937724,26.7900997 104.611926,26.1874639 104.128718,25.6293928 C103.646034,25.0713217 102.91181,24.6160531 101.927093,24.2615615 C100.941852,23.9080827 99.7741015,23.7313433 98.4238408,23.7313433 C94.9137905,23.7313433 92.3952562,24.9649742 90.8692838,27.4322359 C90.7578952,27.6130267 90.8635314,27.8510425 91.0742808,27.9052291 L93.8009498,28.6015519 C93.9416237,28.6375075 94.0864813,28.5762311 94.1644011,28.4567168 C94.9639939,27.225618 96.2039118,26.6103218 97.8846778,26.6103218 C98.9133234,26.6103218 99.7463851,26.8027601 100.384386,27.1861175 C101.022387,27.5704877 101.427674,28.002461 101.601817,28.4820376 C101.774914,28.9621205 101.861724,29.6462894 101.861724,30.5340377 L101.861724,32.2614248 C100.288163,31.2774573 98.658646,30.7862332 96.9742193,30.7862332 C95.1648072,30.7862332 93.6194856,31.3194899 92.3372086,32.3875225 C91.0549316,33.4555552 90.4137931,34.7990785 90.4137931,36.4191052 C90.4137931,38.0259652 91.0178021,39.3461933 92.22582,40.3777639 C93.4338379,41.409841 94.85522,41.9253731 96.4904892,41.9253731 C98.5969377,41.9253731 100.505188,41.1221964 102.214716,39.5138172 L102.214716,41.3176732 C102.214716,41.4944126 102.362711,41.6372221 102.545221,41.6372221 L107.531041,41.6372221 C107.713551,41.6372221 107.862069,41.4944126 107.862069,41.3176732 L107.862069,38.9162456 C107.862069,38.7395062 107.713551,38.5956839 107.531041,38.5956839 Z" id="Fill-3" fill="#FFFFFF"></path>
                            <path d="M140.054417,38.7972896 L137.805871,38.7972896 L137.805871,29.9130322 C137.805871,28.3838858 137.678381,27.2266095 137.422888,26.4432865 C137.16688,25.6594427 136.670288,25.0115347 135.934138,24.4995623 C135.19696,23.9875899 134.25621,23.7313433 133.111373,23.7313433 C131.126031,23.7313433 128.982355,24.6636226 126.680344,26.5266188 C125.914892,24.6636226 124.522788,23.7313433 122.505059,23.7313433 C120.498125,23.7313433 118.450066,24.5766446 116.359339,26.2672472 L116.359339,24.0089438 L110.785781,24.0089438 C110.60637,24.0089438 110.460888,24.1563377 110.460888,24.3381061 L110.460888,26.807865 C110.460888,26.9896335 110.60637,27.1370273 110.785781,27.1370273 L112.887817,27.1370273 L112.887817,38.7972896 L110.566272,38.7972896 C110.386861,38.7972896 110.241379,38.9446834 110.241379,39.1269727 L110.241379,41.5962108 C110.241379,41.7785001 110.386861,41.9253731 110.566272,41.9253731 L118.625365,41.9253731 C118.805289,41.9253731 118.950772,41.7785001 118.950772,41.5962108 L118.950772,39.1269727 C118.950772,38.9446834 118.805289,38.7972896 118.625365,38.7972896 L116.359339,38.7972896 L116.359339,29.1916876 C118.424363,27.6495206 120.112572,26.8781766 121.424482,26.8781766 C122.226432,26.8781766 122.794481,27.1406731 123.129141,27.6646245 C123.462773,28.1896176 123.629846,29.0380438 123.629846,30.2099033 L123.629846,41.9253731 L129.294396,41.9253731 C129.473806,41.9253731 129.619289,41.7785001 129.619289,41.5962108 L129.619289,39.1269727 C129.619289,38.9446834 129.473806,38.7972896 129.294396,38.7972896 L127.100854,38.7972896 L127.100854,29.1916876 C128.989037,27.6495206 130.675191,26.8781766 132.16137,26.8781766 C132.685209,26.8781766 133.13245,27.0167164 133.504124,27.2943169 C133.875797,27.5719174 134.107129,27.9239961 134.19812,28.3495113 C134.290138,28.7750265 134.335377,29.5062668 134.335377,30.5427114 L134.335377,41.9253731 L140.054417,41.9253731 C140.233828,41.9253731 140.37931,41.7785001 140.37931,41.5962108 L140.37931,39.1269727 C140.37931,38.9446834 140.233828,38.7972896 140.054417,38.7972896" id="Fill-5" fill="#FFFFFF"></path>
                            <path d="M158.169984,37.1755606 C157.071296,38.3035272 155.764556,38.8670042 154.249262,38.8670042 C152.805502,38.8670042 151.531003,38.3359284 150.427277,37.2747893 C149.323047,36.2131439 148.771435,34.777366 148.771435,32.9659367 C148.771435,30.9869325 149.338159,29.472683 150.471607,28.4226818 C151.605558,27.3741994 152.894666,26.8486925 154.338931,26.8486925 C155.806872,26.8486925 157.086912,27.3559737 158.178548,28.3690173 C159.271192,29.3825672 159.816758,30.8072072 159.816758,32.642431 C159.816758,34.5373946 159.267666,36.0486066 158.169984,37.1755606 M154.947466,23.7366591 C152.464964,23.7366591 150.370352,24.7203391 148.663632,26.6866866 L148.663632,16.9319021 C148.663632,16.7552143 148.521069,16.6119403 148.345259,16.6119403 L143.076994,16.6119403 C142.901183,16.6119403 142.758621,16.7552143 142.758621,16.9319021 L142.758621,19.3326281 C142.758621,19.5093158 142.901183,19.6525899 143.076994,19.6525899 L145.333814,19.6525899 L145.333814,38.597163 L143.076994,38.597163 C142.901183,38.597163 142.758621,38.740437 142.758621,38.9171248 L142.758621,41.3178507 C142.758621,41.4945385 142.901183,41.6373063 143.076994,41.6373063 L148.345259,41.6373063 C148.521069,41.6373063 148.663632,41.4945385 148.663632,41.3178507 L148.663632,39.0290101 C149.165371,39.7605684 149.98901,40.4263116 151.134548,41.0257337 C152.28059,41.6261684 153.54451,41.9253731 154.929835,41.9253731 C157.400247,41.9253731 159.425844,41.0414281 161.00713,39.2725254 C162.588416,37.5026101 163.37931,35.3226173 163.37931,32.7320406 C163.37931,30.0336287 162.570281,27.859711 160.953732,26.2102878 C159.336176,24.5608645 157.334255,23.7366591 154.947466,23.7366591" id="Fill-7" fill="#FFFFFF"></path>
                            <path d="M179.999411,37.2565636 C178.833716,38.3430161 177.497177,38.8852299 175.991878,38.8852299 C174.437096,38.8852299 173.101599,38.3693421 171.984344,37.3375666 C170.86761,36.3062973 170.309243,34.8310304 170.309243,32.9122722 C170.309243,31.2208287 170.851984,29.7966949 171.938508,28.6393648 C173.02399,27.4815284 174.363133,26.9028633 175.954896,26.9028633 C177.435715,26.9028633 178.771212,27.3949564 179.96243,28.3781301 C181.153127,29.3613039 181.748475,30.8188513 181.748475,32.74976 C181.748475,34.6695307 181.165107,36.1711236 179.999411,37.2565636 M187.636331,38.5966567 L185.265354,38.5966567 L185.265354,16.9319021 C185.265354,16.7552143 185.11847,16.6119403 184.936689,16.6119403 L179.15561,16.6119403 C178.973828,16.6119403 178.826424,16.7552143 178.826424,16.9319021 L178.826424,19.3326281 C178.826424,19.5093158 178.973828,19.6525899 179.15561,19.6525899 L181.748475,19.6525899 L181.748475,26.5424 C179.946804,24.6722436 177.83626,23.7366591 175.418405,23.7366591 C173.134934,23.7366591 171.086894,24.5639021 169.273243,26.2188943 C167.459071,27.8743928 166.551724,30.1353887 166.551724,33.0018818 C166.551724,35.8567307 167.433548,38.0574806 169.198759,39.6046376 C170.963449,41.1512884 173.01201,41.9253731 175.344443,41.9253731 C177.861782,41.9253731 179.995765,40.9786507 181.748475,39.0826746 L181.748475,41.3173445 C181.748475,41.4945385 181.89588,41.6373063 182.077662,41.6373063 L187.636331,41.6373063 C187.818113,41.6373063 187.965517,41.4945385 187.965517,41.3173445 L187.965517,38.9171248 C187.965517,38.740437 187.818113,38.5966567 187.636331,38.5966567" id="Fill-9" fill="#FFFFFF"></path>
                            <g id="Group-13" transform="translate(189.551724, 22.940299)">
                                <mask id="mask-2" fill="white">
                                    <use xlink:href="#path-1"></use>
                                </mask>
                                <g id="Clip-12"></g>
                                <path d="M11.3266509,13.946795 C9.83123103,15.3573347 8.2444643,16.0618349 6.56737708,16.0618349 C5.59437911,16.0618349 4.8256286,15.7821899 4.259586,15.2228999 C3.69456978,14.664123 3.41231826,13.9714243 3.41231826,13.1448039 C3.41231826,12.2571234 3.73408499,11.5336381 4.37864483,10.9748612 C5.02320467,10.4155711 5.82531217,10.135413 6.78548053,10.135413 C8.31733651,10.135413 9.83123103,10.7193323 11.3266509,11.8861447 L11.3266509,13.946795 Z M16.8905982,15.3686232 L14.7552371,15.3686232 L14.7552371,7.20042307 C14.7552371,5.76576716 14.6731276,4.72056184 14.5094217,4.06378088 C14.3452026,3.40699992 14.0254886,2.79639887 13.5513061,2.23095151 C13.0776367,1.66550415 12.3571256,1.20421815 11.390799,0.845041065 C10.4239592,0.486890198 9.27801805,0.307814764 7.95297546,0.307814764 C4.50848053,0.307814764 2.03698357,1.55775103 0.540024138,4.05762356 C0.430202637,4.24080387 0.533865923,4.48196563 0.74067931,4.53686841 L3.41642373,5.24239484 C3.55447039,5.27882566 3.69662252,5.21673933 3.77308702,5.09564534 C4.55774625,3.84827463 5.77502008,3.22484582 7.42388215,3.22484582 C8.43331623,3.22484582 9.25081927,3.41982767 9.87690446,3.80825204 C10.5035028,4.19770262 10.9007077,4.63538556 11.0715982,5.12130085 C11.2414623,5.60772925 11.3266509,6.30094102 11.3266509,7.20042307 L11.3266509,8.95064171 C9.7824785,7.95366874 8.18390852,7.45595192 6.53042779,7.45595192 C4.75532231,7.45595192 3.23834868,7.99625688 1.98053327,9.07840613 C0.721691481,10.1605554 0.0930403651,11.5218365 0.0930403651,13.1632758 C0.0930403651,14.7913743 0.685255375,16.1290524 1.87071176,17.1742577 C3.05668134,18.2199761 4.45151704,18.7423222 6.05573205,18.7423222 C8.12335274,18.7423222 9.9954501,17.9285296 11.6730505,16.2988918 L11.6730505,18.1265901 C11.6730505,18.3056655 11.8182817,18.4503626 11.9978963,18.4503626 L16.8905982,18.4503626 C17.0696996,18.4503626 17.2149308,18.3056655 17.2149308,18.1265901 L17.2149308,15.6934219 C17.2149308,15.5143464 17.0696996,15.3686232 16.8905982,15.3686232 Z" id="Fill-11" fill="#FFFFFF" mask="url(#mask-2)"></path>
                            </g>
                            <g id="Group-16">
                                <mask id="mask-4" fill="white">
                                    <use xlink:href="#path-3"></use>
                                </mask>
                                <g id="Clip-15"></g>
                                <path d="M30.8029345,20.5240971 L33.7801915,28.4170202 C33.8323076,28.5541067 33.8261763,28.7064817 33.7638414,28.8389817 L32.8620294,30.757174 C32.8017383,30.8855971 32.6934186,30.9854817 32.5605738,31.035424 L24.6471096,34.0049529 C24.5096663,34.0569337 24.3568948,34.0508183 24.2240499,33.9886452 L22.3003546,33.0886644 C22.1715973,33.0285298 22.0719637,32.921001 22.0218914,32.7879913 L19.0446345,24.8955779 C18.9930294,24.7579817 18.9986497,24.6061163 19.0614956,24.4736163 L19.9633076,22.5549144 C20.0230877,22.4264913 20.1314074,22.3271163 20.2647631,22.277174 L28.1777164,19.3071356 C28.3151597,19.2556644 28.4679312,19.2617798 28.6007761,19.3239529 L30.5244714,20.223424 C30.6532286,20.2835587 30.7528623,20.3915971 30.8029345,20.5240971 M51.7924173,1.3110875 L25.2367363,11.3372606 L29.9108304,1.39568365 C30.1479074,0.891674038 29.7790075,0.312241346 29.2200373,0.312241346 L21.7357641,0.312241346 C21.4445274,0.312241346 21.1788377,0.477866346 21.0505914,0.738789423 L14.7654982,13.5525587 L9.95702639,0.805039423 C9.84513017,0.508443269 9.56053568,0.312241346 9.24324092,0.312241346 L1.71451578,0.312241346 C1.18109271,0.312241346 0.81270378,0.844789423 1.00124125,1.34217404 L11.0535072,27.8284144 L1.08605756,23.1669625 C0.580736273,22.930501 -0.000204376658,23.2984433 -0.000204376658,23.8554529 L-0.000204376658,31.3213183 C-0.000204376658,31.6112894 0.165851658,31.8762894 0.42745378,32.0036933 L13.2745705,38.2724721 L0.493876194,43.0689721 C0.197019098,43.1805779 -0.000204376658,43.4644337 -0.000204376658,43.7809048 L-0.000204376658,51.2895779 C-0.000204376658,51.8216163 0.533729642,52.1895587 1.03240869,52.0015106 L27.5880897,41.9753375 L22.9139956,51.9169144 C22.6769186,52.420924 23.0458185,53.0003567 23.6047887,53.0003567 L31.0895728,53.0003567 C31.3802986,53.0003567 31.6459883,52.8342221 31.7742346,52.5738087 L38.0593278,39.7600394 L42.8677996,52.5075587 C42.9796958,52.8036452 43.2642903,53.0003567 43.5815851,53.0003567 L51.1103102,53.0003567 C51.6437333,53.0003567 52.0121222,52.4678087 51.8235847,51.9699144 L41.7713188,25.483674 L51.7387684,30.1456356 C52.2440897,30.3820971 52.8250304,30.0136452 52.8250304,29.4566356 L52.8250304,21.9912798 C52.8250304,21.7013087 52.6589743,21.435799 52.3973722,21.3083952 L39.5502555,15.0396163 L52.3309498,10.243626 C52.6278069,10.1320202 52.8250304,9.84816442 52.8250304,9.53169327 L52.8250304,2.02251058 C52.8250304,1.49047212 52.2910964,1.12303942 51.7924173,1.3110875" id="Fill-14" fill="#FFFFFF" mask="url(#mask-4)"></path>
                            </g>
                        </g>
                    </g>
                </g>
            </g>
        </g>
    </g>
</svg>